<svg id="Слой_4" data-name="Слой 4" xmlns="http://www.w3.org/2000/svg" xmlns:xlink="http://www.w3.org/1999/xlink" viewBox="0 0 104.59 114.89">
  <defs>
    <linearGradient id="Безымянный_градиент_27" data-name="Безымянный градиент 27" x1="252.46" y1="249.66" x2="361.01" y2="278.74" gradientTransform="matrix(0.5, -0.87, 0.87, 0.5, -72.06, 375.19)" gradientUnits="userSpaceOnUse">
      <stop offset="0" stop-color="#00eafa"/>
      <stop offset="0.25" stop-color="#00b4fa"/>
      <stop offset="0.77" stop-color="#0049fa"/>
      <stop offset="1" stop-color="#001efa"/>
    </linearGradient>
  </defs>
  <title>favicon</title>
  <path d="M266.48,206.46c-4.76,2.75-8.66,9.5-8.66,15v40.39c0,5.5,3.9,12.25,8.66,15l35,20.19c4.77,2.75,12.56,2.75,17.33,0l35-20.19c4.76-2.75,8.66-9.5,8.66-15V221.46c0-5.5-3.9-12.25-8.66-15l-35-20.19c-4.77-2.75-12.56-2.75-17.33,0Z" transform="translate(-257.82 -184.21)" style="fill: url(#Безымянный_градиент_27)"/>
  <g>
    <polygon points="29.41 37.97 52.78 82.77 52.78 47.71 29.41 37.97" style="fill: #fff"/>
    <polygon points="53.75 83.74 75.18 38.94 53.75 31.15 30.38 38.94 53.75 83.74" style="fill: none;stroke: #fff;stroke-miterlimit: 10;stroke-width: 2px"/>
  </g>
</svg>
