<svg id="Слой_4" data-name="Слой 4" xmlns="http://www.w3.org/2000/svg" xmlns:xlink="http://www.w3.org/1999/xlink" viewBox="0 0 484.36 114.89">
  <defs>
    <linearGradient id="Безымянный_градиент_27" data-name="Безымянный градиент 27" x1="252.46" y1="249.66" x2="361.01" y2="278.74" gradientTransform="matrix(0.5, -0.87, 0.87, 0.5, -72.06, 375.19)" gradientUnits="userSpaceOnUse">
      <stop offset="0" stop-color="#00eafa"/>
      <stop offset="0.25" stop-color="#00b4fa"/>
      <stop offset="0.77" stop-color="#0049fa"/>
      <stop offset="1" stop-color="#001efa"/>
    </linearGradient>
  </defs>
  <title>ларин_2.0</title>
  <path d="M266.48,206.46c-4.76,2.75-8.66,9.5-8.66,15v40.39c0,5.5,3.9,12.25,8.66,15l35,20.19c4.77,2.75,12.56,2.75,17.33,0l35-20.19c4.76-2.75,8.66-9.5,8.66-15V221.46c0-5.5-3.9-12.25-8.66-15l-35-20.19c-4.77-2.75-12.56-2.75-17.33,0Z" transform="translate(-257.82 -184.21)" style="fill: url(#Безымянный_градиент_27)"/>
  <g>
    <polygon points="29.41 37.97 52.78 82.77 52.78 47.71 29.41 37.97" style="fill: #fff"/>
    <polygon points="53.75 83.74 75.18 38.94 53.75 31.15 30.38 38.94 53.75 83.74" style="fill: none;stroke: #fff;stroke-miterlimit: 10;stroke-width: 2px"/>
  </g>
  <g>
    <path d="M414.22,243.9H389.43V280h30.45V290.3H378.12V188.8h41.76v10.29H389.43v34.66h24.79Z" transform="translate(-257.82 -184.21)"/>
    <path d="M430.32,188.8h11.31V280h29V290.3H430.32Z" transform="translate(-257.82 -184.21)"/>
    <path d="M486.72,290.3H476.28l19.43-101.5H512.1l19.43,101.5H520.22l-3.92-20.44H490.64Zm28-30.16-11.46-58.58-11.16,58.58Z" transform="translate(-257.82 -184.21)"/>
    <path d="M585.61,212v8.26c0,11.17-3.91,18.13-12.62,20.88,9.29,2.76,12.77,10.3,12.77,21.18v15.8c0,4.5.14,8.7,2,12.18H576.33c-1.3-2.9-1.88-5.51-1.88-12.32V262c0-11.46-5.37-15.09-14.79-15.09h-8V290.3H540.37V188.8H563C578.94,188.8,585.61,196.92,585.61,212Zm-11.16,10.73V213c0-9.13-3.34-13.92-11.75-13.92h-11v37.56h8.41C569.08,236.65,574.45,233.75,574.45,222.73Z" transform="translate(-257.82 -184.21)"/>
    <path d="M608.81,290.3H597.5V188.8h11.31Z" transform="translate(-257.82 -184.21)"/>
    <path d="M620.26,290.3V188.8h14.36l23.49,73.37V188.8h10V290.3H656.37l-26-82.07V290.3Z" transform="translate(-257.82 -184.21)"/>
  </g>
  <g>
    <path d="M690.67,234.89h-4.93v-6.37h4.93Z" transform="translate(-257.82 -184.21)" style="fill: aqua"/>
    <path d="M716.42,199.41v3.75c0,5.06-1.77,8.21-5.71,9.46,4.2,1.25,5.78,4.67,5.78,9.59v7.17a11.53,11.53,0,0,0,.92,5.51h-5.19c-.59-1.31-.85-2.49-.85-5.58v-7.23c0-5.19-2.44-6.83-6.71-6.83h-3.61v19.64h-5.13v-46h10.25C713.4,188.9,716.42,192.58,716.42,199.41Zm-5,4.87v-4.41c0-4.14-1.52-6.3-5.33-6.3h-5v17h3.81C708.93,210.58,711.37,209.27,711.37,204.28Z" transform="translate(-257.82 -184.21)" style="fill: aqua"/>
    <path d="M732.06,230.69c3.68,0,5.32-2.5,5.32-6.64V188.9h4.8v34.89c0,7-3.22,11.63-10.32,11.63s-10.25-4.66-10.25-11.63V188.9h5.06v35.15C726.67,228.19,728.31,230.69,732.06,230.69Z" transform="translate(-257.82 -184.21)" style="fill: aqua"/>
  </g>
</svg>
