<svg xmlns="http://www.w3.org/2000/svg" viewBox="0 0 512 512">
  <rect width="512" height="512" style="fill: gold"/>
  <path d="M394.52,280.41c16.29-12.57,24.67-27,24.67-43.29v-1.86c0-8.38-2.33-16.29-7-25.13-11.17-16.29-25.13-24.21-42.36-24.21H285.14a122.23,122.23,0,0,0-20.94-31.18c-20.48-19.55-43.75-28.86-70.28-28.86A98,98,0,0,0,145,138.45q-16,8.37-30.71,26.53v.46h77.72c15.36,0,28.86,4.66,40,14,14.43,13,21.88,27.92,21.88,46.08v1.86c0,11.63-3.73,23.27-10.71,34-13,17.22-29.32,25.6-48.87,25.6a60.58,60.58,0,0,1-34-10.24c-17.68-13-26.53-29.79-26.53-49.81V226c0-4.19.93-10.7,2.33-19.55a21.6,21.6,0,0,0-.46-4.65c-3.26-10.71-9.78-16.29-19.09-16.29h-1.86c-6.52,0-12.1,3.72-16.76,10.7A89.06,89.06,0,0,0,93.38,226c0,27,9.77,51.2,29.79,71.22C143.65,316.71,166.92,326,193.45,326c19.08,0,36.31-4.65,51.67-14.43v55.86a40.69,40.69,0,0,0,.93,5.12c4.18,8.84,10.24,13.5,18.15,13.5h.93a6.84,6.84,0,0,0,3.26-.47q16.75-4.19,16.75-21V266a98.48,98.48,0,0,0,8.38-40.49V225h77.27c5.11,1.86,7.44,5.12,7.44,9.78v.46a9,9,0,0,1-1.86,5.59L331.22,283.2c-17.68,14-26.53,28.86-26.53,46.08v4.19q0,13.26,8.38,27.93c12.1,16.29,27,24.67,44.68,24.67h41.43a17.7,17.7,0,0,0,7.91-1.87C414.54,380,418.73,374,418.73,367v-1.86a9,9,0,0,0-.47-3.26C415,351.16,408,346,398.25,346h-39.1c-2.33,0-3.72,0-4.66-.47-7-2.79-10.7-7.45-10.7-13.5a14.34,14.34,0,0,1,2.79-8.84C348.44,321.37,363.8,307.41,394.52,280.41Z" style="fill: #fff"/>
</svg>
