<svg xmlns="http://www.w3.org/2000/svg" id="logo" viewBox="0 0 90 90" fill="white">
    <path fill-rule="evenodd" clip-rule="evenodd" d="M48.8736 40.1836C52.6822 40.1836 55.7707 43.2728 55.7707 47.0815C55.7707 50.8901 52.6822 53.9786 48.8736 53.9786C45.0649 53.9786 41.9765 50.8901 41.9765 47.0815C41.9765 43.2728 45.0649 40.1836 48.8736 40.1836ZM36.7998 62.9297H39.4434L38.122 59.1747L36.7998 62.9297ZM40.4801 65.8782H35.7615L35.1315 67.6686H31.7615L36.4016 54.4857H36.4708H39.7716H39.8408L43.406 64.6143H43.8174L47 54.6101H47.6012H50.37H50.9712L54.1538 64.6143H55.3056V54.3146H58.6756V62.2453L63.2682 54.6848V54.3138H63.4938H66.6382H66.8638L66.6382 54.6848V58.7306C67.6159 56.1096 70.1412 54.2415 73.1029 54.2415C76.9116 54.2415 80 57.3299 80 61.1386C80 64.9472 76.9116 68.0357 73.1029 68.0357C70.1412 68.0357 67.6159 66.1683 66.6382 63.5465V67.7922H63.2682V60.2317L58.6756 67.7922H55.304H55.1633H51.7933H46.1748H42.8056H41.2983V67.667H41.1101L40.4801 65.8782ZM47.1866 64.6143L48.9848 58.9624L50.783 64.6143H47.1866ZM29.3886 63.6538H27.6083V67.8793H24.2383V54.4001H24.5416V54.3869H28.5634C36.0072 54.3869 35.3788 63.6538 29.3886 63.6538ZM29.2299 60.5996C31.2326 60.5623 31.4138 57.4404 29.2571 57.4404H27.6091V60.5996H29.2299ZM29.2517 53.9591L24.1263 53.9786V40.5001H28.8667C34.5334 40.5001 34.1943 45.6061 32.1589 46.7992C35.2023 47.8382 35.2878 53.9358 29.2517 53.9591ZM29.0829 50.9049C30.0893 50.9049 30.794 50.3613 30.6882 49.7842C30.5832 49.2125 30.3639 48.6082 29.0829 48.6082H27.4955V50.9049H29.0829ZM28.8099 45.9226C30.2597 45.9864 30.2799 43.5536 29.002 43.5536H27.4955V45.9226H28.8099ZM20.0167 51.9914H15.3789L14.0241 53.9786H10L20.5556 40.4994H23.2117H23.3867V53.9786H20.0167V51.9914ZM17.4462 48.959H20.0174V45.1869L17.4462 48.959ZM42.2464 43.5536H39.8245V53.9786H36.4545V43.5536H34.0325V40.5001H42.2464V43.5536ZM73.1006 57.4474C75.1391 57.4474 76.7925 59.1009 76.7925 61.1393C76.7925 63.1778 75.1391 64.8313 73.1006 64.8313C71.0621 64.8313 69.4086 63.1778 69.4086 61.1393C69.4086 59.1009 71.0613 57.4474 73.1006 57.4474ZM48.8736 43.3895C50.9121 43.3895 52.5656 45.043 52.5656 47.0815C52.5656 49.12 50.9121 50.7735 48.8736 50.7735C46.8351 50.7735 45.1816 49.12 45.1816 47.0815C45.1816 45.0422 46.8351 43.3895 48.8736 43.3895Z"/>
    <path fill-rule="evenodd" clip-rule="evenodd" d="M56.4199 21.4853L63.471 27.593L72.2184 24.3513L68.5878 32.9447L74.3743 40.2618L65.0802 39.4646L59.9089 47.2289L57.795 38.1432L48.8127 35.6241L56.8002 30.8059L56.4199 21.4853ZM48.7645 21C51.0814 21 53.3268 21.3057 55.464 21.8765L55.4127 24.4493C52.5747 23.5215 49.7258 23.152 47.1716 23.2998C36.8462 23.8987 27.8857 29.8477 24.0195 39.1994C27.3032 28.657 37.141 21.0008 48.7645 21ZM73.9528 40.8086C74.4256 42.7669 74.6784 44.8109 74.6784 46.9139C74.6784 49.3631 74.3385 51.7321 73.7031 53.9782H72.0006C72.23 52.5596 72.3568 51.1029 72.3786 49.6174C72.4253 46.3788 72.0255 43.4638 71.2804 40.8591L73.9528 40.8086ZM62.0975 45.2036C62.176 45.7916 62.2173 46.3913 62.2173 46.9995C62.2173 49.9627 61.2521 52.7004 59.6196 54.917V53.9775H58.7555C59.8848 52.0572 60.5326 49.8196 60.5326 47.4311C60.5326 47.3837 60.5319 47.3378 60.5319 47.2903L62.0975 45.2036ZM48.6035 35.0306C46.8154 34.6495 45.0919 34.466 43.4587 34.459C45.6356 33.6455 48.1586 33.4378 50.467 33.7287L48.6035 35.0306ZM48.85 31.0167C50.432 31.0167 51.9603 31.2477 53.4038 31.6762L51.3513 33.1104C47.769 32.0153 44.1089 32.349 40.539 33.346C42.9609 31.8691 45.8059 31.0174 48.85 31.0167ZM64.171 42.4395C64.6011 43.8846 64.8328 45.4152 64.8328 46.9995C64.8328 51.6761 62.8223 55.8845 59.6196 58.8073V56.9306C61.9194 54.308 63.3147 50.8727 63.3147 47.1115C63.3147 46.0483 63.2034 45.0115 62.9911 44.0113L64.171 42.4395ZM48.85 28.0939C51.1211 28.0939 53.2988 28.4952 55.3163 29.2294L55.2937 30.3556L54.2943 31.054C52.1477 30.1946 49.8043 29.7202 47.3513 29.7202C42.0595 29.7202 37.281 31.9212 33.8799 35.4561C37.3362 30.9793 42.7563 28.0947 48.85 28.0939ZM66.7648 40.9447C67.4072 42.8455 67.7556 44.8824 67.7556 47.0002C67.7556 49.4649 67.2828 51.82 66.4249 53.979H65.2007C65.7482 52.2213 66.0438 50.3524 66.0438 48.4142C66.0438 46.0234 65.5943 43.7368 64.7753 41.6353L65.2723 40.9734L66.7648 40.9447ZM50.7602 24.5963C52.3631 24.727 53.9116 25.028 55.3909 25.4775L55.3474 27.6568C53.2692 26.8829 51.1763 26.4785 49.2521 26.4334C40.469 26.2273 32.4714 30.6457 28.5515 38.2964C32.0607 29.5965 40.9193 23.7937 50.7602 24.5963ZM70.2483 40.8786C70.8768 43.2421 71.121 45.7504 70.911 48.3271C70.7414 50.4076 70.2872 52.3963 69.5903 54.259C68.9121 54.6813 68.2845 55.1791 67.6981 55.7391C68.2363 54.0622 68.6003 52.2928 68.7768 50.4566C69.1221 46.8626 68.7784 43.6886 67.9407 40.9221L70.2483 40.8786ZM59.3372 27.6366L62.8776 30.704L67.2703 29.0762L65.4473 33.3911L68.3529 37.066L63.6857 36.6655L61.0887 40.5643L60.0271 36.0021L55.5169 34.7374L59.5278 32.3178L59.3372 27.6366Z"/>
</svg>