<?xml version="1.0" encoding="utf-8"?>
<!-- Generator: Adobe Illustrator 23.1.0, SVG Export Plug-In . SVG Version: 6.00 Build 0)  -->
<svg version="1.1" id="logo" xmlns="http://www.w3.org/2000/svg" xmlns:xlink="http://www.w3.org/1999/xlink" x="0px" y="0px"
	 viewBox="0 0 90 90" style="enable-background:new 0 0 90 90;" xml:space="preserve">
<style type="text/css">
	.st0{fill-rule:evenodd;clip-rule:evenodd;fill:#E51937;}
	.st1{fill-rule:evenodd;clip-rule:evenodd;fill:#017CC0;}
</style>
<path class="st0" d="M48.9,40.2c3.8,0,6.9,3.1,6.9,6.9c0,3.8-3.1,6.9-6.9,6.9c-3.8,0-6.9-3.1-6.9-6.9C42,43.3,45.1,40.2,48.9,40.2z
	 M36.8,62.9h2.6l-1.3-3.8L36.8,62.9z M40.5,65.9h-4.7l-0.6,1.8h-3.4l4.6-13.2h0.1h3.3h0.1l3.6,10.1h0.4l3.2-10h0.6h2.8H51l3.2,10
	h1.2V54.3h3.4v7.9l4.6-7.6v-0.4h0.2h3.1h0.2l-0.2,0.4v4c1-2.6,3.5-4.5,6.5-4.5c3.8,0,6.9,3.1,6.9,6.9c0,3.8-3.1,6.9-6.9,6.9
	c-3,0-5.5-1.9-6.5-4.5v4.2h-3.4v-7.6l-4.6,7.6h-3.4h-0.1h-3.4h-5.6h-3.4h-1.5v-0.1h-0.2L40.5,65.9z M47.2,64.6L49,59l1.8,5.7H47.2z
	 M29.4,63.7h-1.8v4.2h-3.4V54.4h0.3v0h4C36,54.4,35.4,63.7,29.4,63.7z M29.2,60.6c2,0,2.2-3.2,0-3.2h-1.6v3.2H29.2z M29.3,54l-5.1,0
	V40.5h4.7c5.7,0,5.3,5.1,3.3,6.3C35.2,47.8,35.3,53.9,29.3,54z M29.1,50.9c1,0,1.7-0.5,1.6-1.1c-0.1-0.6-0.3-1.2-1.6-1.2h-1.6v2.3
	H29.1z M28.8,45.9c1.4,0.1,1.5-2.4,0.2-2.4h-1.5v2.4H28.8z M20,52h-4.6L14,54h-4l10.6-13.5h2.7h0.2V54H20V52z M17.4,49H20v-3.8
	L17.4,49z M42.2,43.6h-2.4V54h-3.4V43.6H34v-3.1h8.2V43.6z M73.1,57.4c2,0,3.7,1.7,3.7,3.7c0,2-1.7,3.7-3.7,3.7s-3.7-1.7-3.7-3.7
	C69.4,59.1,71.1,57.4,73.1,57.4z M48.9,43.4c2,0,3.7,1.7,3.7,3.7c0,2-1.7,3.7-3.7,3.7s-3.7-1.7-3.7-3.7C45.2,45,46.8,43.4,48.9,43.4
	z"/>
<path class="st1" d="M56.4,21.5l7.1,6.1l8.7-3.2l-3.6,8.6l5.8,7.3l-9.3-0.8l-5.2,7.8l-2.1-9.1l-9-2.5l8-4.8L56.4,21.5z M48.8,21
	c2.3,0,4.6,0.3,6.7,0.9l-0.1,2.6c-2.8-0.9-5.7-1.3-8.2-1.1C36.8,23.9,27.9,29.8,24,39.2C27.3,28.7,37.1,21,48.8,21z M74,40.8
	c0.5,2,0.7,4,0.7,6.1c0,2.4-0.3,4.8-1,7.1H72c0.2-1.4,0.4-2.9,0.4-4.4c0-3.2-0.4-6.2-1.1-8.8L74,40.8z M62.1,45.2
	c0.1,0.6,0.1,1.2,0.1,1.8c0,3-1,5.7-2.6,7.9V54h-0.9c1.1-1.9,1.8-4.2,1.8-6.5c0,0,0-0.1,0-0.1L62.1,45.2z M48.6,35
	c-1.8-0.4-3.5-0.6-5.1-0.6c2.2-0.8,4.7-1,7-0.7L48.6,35z M48.8,31c1.6,0,3.1,0.2,4.6,0.7l-2.1,1.4c-3.6-1.1-7.2-0.8-10.8,0.2
	C43,31.9,45.8,31,48.8,31z M64.2,42.4c0.4,1.4,0.7,3,0.7,4.6c0,4.7-2,8.9-5.2,11.8v-1.9c2.3-2.6,3.7-6.1,3.7-9.8
	c0-1.1-0.1-2.1-0.3-3.1L64.2,42.4z M48.8,28.1c2.3,0,4.4,0.4,6.5,1.1l0,1.1l-1,0.7c-2.1-0.9-4.5-1.3-6.9-1.3
	c-5.3,0-10.1,2.2-13.5,5.7C37.3,31,42.8,28.1,48.8,28.1z M66.8,40.9c0.6,1.9,1,3.9,1,6.1c0,2.5-0.5,4.8-1.3,7h-1.2
	c0.5-1.8,0.8-3.6,0.8-5.6c0-2.4-0.4-4.7-1.3-6.8l0.5-0.7L66.8,40.9z M50.8,24.6c1.6,0.1,3.2,0.4,4.6,0.9l0,2.2
	c-2.1-0.8-4.2-1.2-6.1-1.2c-8.8-0.2-16.8,4.2-20.7,11.9C32.1,29.6,40.9,23.8,50.8,24.6z M70.2,40.9c0.6,2.4,0.9,4.9,0.7,7.4
	c-0.2,2.1-0.6,4.1-1.3,5.9c-0.7,0.4-1.3,0.9-1.9,1.5c0.5-1.7,0.9-3.4,1.1-5.3c0.3-3.6,0-6.8-0.8-9.5L70.2,40.9z M59.3,27.6l3.5,3.1
	l4.4-1.6l-1.8,4.3l2.9,3.7l-4.7-0.4l-2.6,3.9L60,36l-4.5-1.3l4-2.4L59.3,27.6z"/>
</svg>
