<svg xmlns="http://www.w3.org/2000/svg" id="Слой_1" data-name="Слой 1" viewBox="0 0 300 300"><defs><style>.cls-1,.cls-2{fill:#fff;}.cls-2{fill-rule:evenodd;}</style></defs><title>Дорожное Радио white</title><polygon class="cls-1" points="152.36 60.28 149.7 60.3 149.69 60.3 149.68 60.33 148.78 62.84 148.76 62.88 150.91 64.38 150.91 64.38 153.08 62.84 153.11 62.81 152.41 60.28 152.36 60.28"/><polygon class="cls-1" points="110.59 70.41 107.93 70.42 107.91 70.42 107.91 70.44 107.01 72.94 106.99 73 109.14 74.48 109.14 74.48 111.31 72.94 111.34 72.92 110.64 70.41 110.59 70.41"/><path class="cls-1" d="M218.56,188.57a78.69,78.69,0,0,1-137.12,0H59.56a98.33,98.33,0,0,0,180.87,0ZM100,220.08a3.81,3.81,0,0,1-2.75,1.6,6.4,6.4,0,0,1-4.29-1.63,8.71,8.71,0,0,1-.69-.6l-2.48,3.2-2.66-2.05,7.32-9.47a28.14,28.14,0,0,1,3.68,2.51,6.56,6.56,0,0,1,2.52,3.18A3.62,3.62,0,0,1,100,220.08Zm20.25,19.5.08-3.09-3.35-1.12-1.67,2.55-3.4-1.15,7.48-10.29,4.4,1.47,0,12.8Zm36,6.59-2.71-.07,0-1.52-7.41-.23-.13,1.53-2.7-.08.06-4.05,1.12-.07A10.77,10.77,0,0,0,145.7,239a12,12,0,0,0,.58-3.42l.11-3.36,9,.3L155,242l1.36.15Zm27.92-8-1.06-3a42.91,42.91,0,0,1-1.5-4.91l0,0a36.21,36.21,0,0,1-.54,5.26l-.71,4-3.9,1.38-4.06-11.43,3-1.05,1.1,3.09c.61,1.73,1.26,3.6,1.79,5.36l.07,0c.17-1.84.44-3.82.68-5.4l.71-4.57,3.41-1.21L187,237.09Zm26.22-15.06h0c-3.06,2.57-6.65,2.08-8.89-.59-2.39-2.84-2.07-6.61,1-9.17s6.7-2.18,9,.55S213.47,220.4,210.29,223.08Z"/><path class="cls-2" d="M54.51,169.05l-11.24,0V152.21H54.51v16.84Zm0-22.45H37.65v28.07H54.51l5.61-5.61V152.22l-5.61-5.62Z"/><path class="cls-2" d="M82.59,169.05H71.36V152.2H82.59v16.85Zm5.62-22.45H65.74v28.07H88.21V146.6Z"/><path class="cls-2" d="M110.68,157.83H99.44v-5.62h11.24v5.62ZM93.83,146.6v28.07h5.61V163.43H116.3V146.58l-22.47,0Z"/><path class="cls-2" d="M138.77,169.05H127.53V152.2h11.24v16.85Zm5.63-22.45H121.92v28.07H144.4V146.6Z"/><polygon class="cls-2" points="200.57 146.59 200.57 157.84 189.33 157.82 189.33 146.59 183.72 146.59 183.72 174.68 189.33 174.66 189.33 163.44 200.57 163.44 200.57 174.68 206.19 174.66 206.19 146.59 200.57 146.59"/><path class="cls-2" d="M228.65,169.05H217.41V152.2h11.24v16.85Zm5.62-22.45H211.8v28.07h22.47V146.6Z"/><polygon class="cls-2" points="262.36 152.22 262.36 146.59 239.89 146.59 239.89 174.68 262.36 174.68 262.36 169.06 245.51 169.06 245.51 163.44 256.74 163.44 256.74 157.82 245.51 157.84 245.51 152.22 262.36 152.22"/><polygon class="cls-2" points="152.99 159.22 150.13 148.03 155.63 146.59 158.48 157.78 158.43 157.79 158.43 157.81 152.99 159.22"/><polygon class="cls-2" points="161.24 174.68 161.24 163.44 158.43 163.44 158.43 163.46 158.39 163.46 158.39 163.44 158.43 163.44 158.43 157.84 158.39 157.84 158.39 157.81 158.43 157.81 158.43 157.84 161.24 157.84 161.24 146.59 166.87 146.59 166.87 157.84 169.67 157.84 169.67 157.81 169.69 157.81 169.69 157.84 169.67 157.84 169.67 163.44 169.69 163.44 169.69 163.46 169.67 163.46 169.67 163.44 166.87 163.44 166.87 174.68 161.24 174.68"/><polygon class="cls-2" points="175.13 159.24 177.99 148.04 172.48 146.62 169.63 157.79 169.69 157.81 169.69 157.84 175.13 159.24"/><polygon class="cls-2" points="175.16 162 178.02 173.19 172.53 174.63 169.67 163.44 169.72 163.43 169.72 163.41 175.16 162"/><polygon class="cls-2" points="152.93 162.01 150.08 173.21 155.58 174.65 158.43 163.46 158.38 163.44 158.38 163.43 152.93 162.01"/><path class="cls-2" d="M140.85,87.83h21.44a3.48,3.48,0,0,1,3.52,2.53l1.3,5.75c.32.84.26,3.51-2,3.51H137.59a2.3,2.3,0,0,1-2.41-3.19l2-6.08a3.84,3.84,0,0,1,3.66-2.52Zm-3.47-3c-2.87,0-4.14,1.58-5.19,4.19l-3.51,10.57h-.06a3.81,3.81,0,0,0-3.85,3.84v10.06a3.81,3.81,0,0,0,3.85,3.84h45.47a3.81,3.81,0,0,0,3.85-3.84V103.48a3.77,3.77,0,0,0-3.58-3.77l-3.12-10.64c-.92-2.34-2.24-4.19-5.11-4.19Zm25.72,33.66H172v5.11a2.5,2.5,0,0,1-2.54,2.54h-3.85a2.5,2.5,0,0,1-2.53-2.54v-5.11Zm6-13a3,3,0,1,1-3,3,3,3,0,0,1,3-3Zm-35.44,0a3,3,0,1,1-3,3,3,3,0,0,1,3-3Zm-3,13h8.93v5.11a2.51,2.51,0,0,1-2.54,2.54h-3.84a2.51,2.51,0,0,1-2.55-2.54v-5.11Z"/><path class="cls-2" d="M191.28,107H202a1.74,1.74,0,0,1,1.76,1.26l.65,2.87c.16.43.14,1.76-1,1.76H189.64a1.15,1.15,0,0,1-1.2-1.6l1-3a1.94,1.94,0,0,1,1.83-1.26Zm-1.74-1.49c-1.43,0-2.07.8-2.59,2.11l-1.76,5.27h0a1.92,1.92,0,0,0-1.92,1.93v5a1.91,1.91,0,0,0,1.92,1.92h22.73a1.91,1.91,0,0,0,1.92-1.92v-5a1.92,1.92,0,0,0-1.79-1.9l-1.56-5.3c-.46-1.18-1.12-2.11-2.55-2.11Zm12.86,16.84h4.46v2.55a1.25,1.25,0,0,1-1.27,1.27h-1.92a1.25,1.25,0,0,1-1.27-1.27v-2.55Zm3-6.5a1.48,1.48,0,1,1-1.47,1.48,1.48,1.48,0,0,1,1.47-1.48Zm-17.71,0a1.48,1.48,0,1,1-1.48,1.48,1.47,1.47,0,0,1,1.48-1.48Zm-1.48,6.5h4.46v2.55a1.26,1.26,0,0,1-1.28,1.27h-1.91a1.25,1.25,0,0,1-1.27-1.27v-2.55Z"/><path class="cls-2" d="M101.13,107h10.72a1.74,1.74,0,0,1,1.76,1.26l.65,2.87c.16.43.13,1.76-1,1.76H99.5a1.15,1.15,0,0,1-1.21-1.6l1-3a1.92,1.92,0,0,1,1.83-1.26Zm-1.75-1.49c-1.43,0-2.07.8-2.59,2.11L95,112.9h0a1.91,1.91,0,0,0-1.92,1.93v5A1.9,1.9,0,0,0,95,121.78h22.73a1.91,1.91,0,0,0,1.93-1.92v-5a1.92,1.92,0,0,0-1.79-1.9l-1.57-5.3c-.46-1.18-1.12-2.11-2.55-2.11Zm12.87,16.84h4.46v2.55a1.25,1.25,0,0,1-1.27,1.27h-1.93a1.25,1.25,0,0,1-1.27-1.27v-2.55Zm3-6.5a1.48,1.48,0,1,1-1.48,1.48,1.47,1.47,0,0,1,1.48-1.48Zm-17.72,0A1.48,1.48,0,1,1,96,117.34a1.48,1.48,0,0,1,1.48-1.48ZM96,122.36h4.46v2.55a1.25,1.25,0,0,1-1.27,1.27H97.31A1.26,1.26,0,0,1,96,124.91v-2.55Z"/><path class="cls-2" d="M249.55,188.57a106.77,106.77,0,0,1-199.08,0h-6a112.41,112.41,0,0,0,211.11,0Z"/><path class="cls-2" d="M45.09,130.15a106.79,106.79,0,0,1,209.82,0h5.72C251.21,77.7,205.13,37.67,150,37.67A112.67,112.67,0,0,0,39.36,130.15Z"/><path class="cls-1" d="M149.39,236.39a11.45,11.45,0,0,1-.69,3.49,8.61,8.61,0,0,1-.92,1.82l3.85.13.22-6.7-2.41-.08Z"/><path class="cls-1" d="M119.41,231.35l-1.22,1.82,2.39.8.06-2.24c0-.72,0-1.63.07-2.37h0C120.27,230,119.82,230.73,119.41,231.35Z"/><path class="cls-1" d="M96.57,215.64a7.47,7.47,0,0,0-.93-.63l-1.85,2.39a3.92,3.92,0,0,0,.66.58c1,.8,2.14.91,2.82,0C97.81,217.33,97.64,216.48,96.57,215.64Z"/><path class="cls-1" d="M204,215.38c-1.39,1.17-1.25,3.11.09,4.72s3.22,2,4.61.86h0c1.42-1.19,1.26-3.07-.08-4.68S205.4,214.2,204,215.38Z"/><path class="cls-2" d="M289.26,186.33H10.74V132.4H289.26v53.93Zm-281,2.24H291.73v-58.4H8.27v58.4Z"/><path class="cls-2" d="M136.69,206.08h6.7a1.34,1.34,0,1,1,0,2.67h-6.7v6.69a1.34,1.34,0,1,1-2.68,0V199.39a1.35,1.35,0,0,1,1.34-1.34h10.71a1.34,1.34,0,1,1,0,2.68h-9.37v5.35Z"/><path class="cls-2" d="M168.81,199.39a1.34,1.34,0,0,0-1.34-1.34H164.8a1.33,1.33,0,0,0-1.33,1.19l-4,12L155.38,199a.11.11,0,0,1,0-.06,1.35,1.35,0,0,0-1.26-.89h-2.68a1.34,1.34,0,0,0-1.34,1.34v16.05a1.34,1.34,0,1,0,2.67,0V200.72h0L158.26,216a1.34,1.34,0,0,0,1.19.73,1.36,1.36,0,0,0,1.2-.73l5.5-15.31v14.7a1.34,1.34,0,1,0,2.67,0v-16Z"/><polygon class="cls-1" points="192.29 70.41 189.63 70.42 189.61 70.42 189.6 70.44 188.7 72.94 188.69 73 190.83 74.48 190.84 74.48 193.01 72.94 193.03 72.92 192.34 70.41 192.29 70.41"/><polygon class="cls-1" points="79.96 96.23 77.3 96.25 77.28 96.25 77.28 96.28 76.38 98.78 76.36 98.83 78.51 100.33 78.51 100.33 80.68 98.78 80.71 98.77 80.01 96.23 79.96 96.23"/><polygon class="cls-1" points="222.77 96.23 220.11 96.25 220.09 96.25 220.09 96.28 219.19 98.78 219.17 98.83 221.32 100.33 221.32 100.33 223.49 98.78 223.52 98.77 222.82 96.23 222.77 96.23"/><path class="cls-1" d="M150,51.71a98.61,98.61,0,0,0-96.33,78.44H73.86a78.71,78.71,0,0,1,152.29,0h20.18A98.6,98.6,0,0,0,150,51.71ZM86.13,97.54l-5,1.38,3,4.24.14.2-.2.15-2.17,1.54-.2.14-.14-.2-3-4.22-3,4.28-.14.2-.2-.14-2.19-1.51-.2-.15.14-.2,3-4.35-4.93-1.76-.23-.08.08-.23.9-2.5.08-.23.23.08,4.93,1.76,0-5.24v-.24h.25l2.66,0h.24v.24l0,5.22,5.09-1.39.24-.06.06.24.71,2.57.06.24Zm30.63-25.83-5,1.39,3,4.23.14.21-.2.14-2.17,1.54-.2.14-.14-.2-3-4.22-3,4.28-.14.2-.2-.14-2.19-1.51-.2-.14.14-.21,3-4.35-4.93-1.76-.23-.08.08-.23.9-2.51.08-.23.23.08,4.93,1.76,0-5.24v-.24h.24l2.66,0h.24v.24l0,5.22,5.09-1.39.24-.06.06.24.71,2.57.06.24ZM158.53,61.6l-5,1.38,3,4.23.14.21-.2.14-2.17,1.54-.2.14-.14-.2-3-4.22-3,4.28-.14.2-.2-.14-2.19-1.51-.2-.14.14-.21,3-4.35-4.93-1.76-.23-.08.08-.23.9-2.5.08-.23.23.09L149.46,60l0-5.24v-.24h.24l2.66,0h.24v.25l0,5.22,5.09-1.39.24-.06.06.24.71,2.57.06.25Zm39.92,10.11-5,1.39,3,4.23.14.21-.2.14-2.17,1.54-.2.14-.14-.2-3-4.22-2.95,4.28-.14.2-.2-.14-2.19-1.51-.2-.14.14-.21,3-4.35-4.93-1.76-.23-.08.08-.23.9-2.5.08-.23.23.08,4.93,1.76,0-5.24v-.24h.24l2.66,0h.24v.25l0,5.22,5.09-1.39.24-.06.06.24.71,2.57.06.24Zm28.45,31.46.14.2-.2.14-2.17,1.54-.2.14-.14-.2-3-4.22-3,4.28-.14.2-.2-.14-2.19-1.51-.2-.14.14-.2,3-4.36-4.93-1.76-.23-.07.08-.24.9-2.51.08-.23.23.08,4.93,1.76,0-5.24v-.24h.24l2.66,0H223v.24l0,5.22,5.09-1.39.24-.06.06.24.71,2.57.06.24-.24.06-5,1.38Z"/></svg>