<svg xmlns="http://www.w3.org/2000/svg" id="Слой_1" data-name="Слой 1" viewBox="0 0 300 300"><defs><style>.cls-1,.cls-6{fill:#fff;}.cls-1,.cls-3,.cls-4,.cls-5{fill-rule:evenodd;}.cls-2{fill:none;stroke:#09000f;stroke-miterlimit:22.93;stroke-width:0.5px;}.cls-4{fill:#c20d19;}.cls-5{fill:#f2cb12;}</style></defs><title>Дорожное Радио color</title><path class="cls-1" d="M149.79,261.16c-61.12,0-110.95-49.84-110.95-111s49.84-111,111-111,111,49.84,111,111-49.85,111-111,111Z"/><path class="cls-2" d="M149.79,262.54c-61.91,0-112.4-50.45-112.4-112.33S87.89,37.89,149.79,37.89,262.18,88.34,262.18,150.21,211.7,262.54,149.79,262.54Z"/><path class="cls-3" d="M149.79,262.54c-61.91,0-112.4-50.45-112.4-112.33S87.89,37.89,149.79,37.89,262.18,88.34,262.18,150.21,211.7,262.54,149.79,262.54Z"/><path class="cls-1" d="M149.79,256.92C91,256.92,43,209,43,150.21S91,43.5,149.79,43.5,256.58,91.43,256.58,150.21s-48,106.71-106.79,106.71Z"/><path class="cls-4" d="M149.79,248.5c-54.16,0-98.35-44.15-98.35-98.29s44.18-98.28,98.35-98.28a98.5,98.5,0,0,1,98.34,98.28c0,54.13-44.17,98.29-98.34,98.29Z"/><path class="cls-1" d="M150.18,72.27A78.63,78.63,0,1,1,71.51,150.9a78.65,78.65,0,0,1,78.67-78.63Z"/><polygon class="cls-5" points="9.29 131.49 290.29 131.49 290.29 187.65 9.29 187.65 9.29 131.49"/><path class="cls-3" d="M54.29,169.26H43.05V152.42H54.29v16.84Zm0-22.45H37.43v28.07H54.29l5.61-5.61V152.43l-5.61-5.62Z"/><path class="cls-3" d="M82.38,169.27H71.14V152.42H82.38v16.85ZM88,146.81H65.52v28.07H88V146.81Z"/><path class="cls-3" d="M110.46,158H99.23v-5.62h11.23V158ZM93.61,146.81v28.07h5.61V163.65h16.86V146.8Z"/><path class="cls-3" d="M138.55,169.27H127.32V152.42h11.23v16.85Zm5.62-22.46H121.69v28.07h22.48V146.81Z"/><polygon class="cls-3" points="200.34 146.81 200.34 158.04 189.1 158.04 189.1 146.81 183.5 146.81 183.5 174.88 189.1 174.88 189.1 163.65 200.34 163.66 200.34 174.88 205.97 174.88 205.97 146.81 200.34 146.81"/><path class="cls-3" d="M228.43,169.27H217.2V152.42h11.23v16.85Zm5.62-22.46H211.58v28.07h22.47V146.81Z"/><polygon class="cls-3" points="262.13 152.42 262.13 146.81 239.66 146.81 239.66 174.88 262.13 174.88 262.13 169.27 245.29 169.27 245.29 163.65 256.51 163.65 256.51 158.04 245.29 158.04 245.29 152.42 262.13 152.42"/><polygon class="cls-3" points="152.78 159.44 149.91 148.24 155.41 146.81 158.26 157.99 158.22 158 158.22 158.02 152.78 159.44"/><polygon class="cls-3" points="161.03 174.89 161.03 163.65 158.22 163.65 158.22 163.67 158.18 163.67 158.18 163.65 158.22 163.65 158.22 158.04 158.18 158.04 158.18 158.02 158.22 158.02 158.22 158.04 161.03 158.04 161.03 146.81 166.65 146.81 166.65 158.04 169.44 158.04 169.44 158.02 169.47 158.02 169.47 158.04 169.44 158.04 169.44 163.65 169.47 163.65 169.47 163.67 169.44 163.67 169.44 163.65 166.65 163.65 166.65 174.89 161.03 174.89"/><polygon class="cls-3" points="174.91 159.45 177.76 148.25 172.26 146.83 169.41 158.01 169.47 158.02 169.47 158.04 174.91 159.45"/><polygon class="cls-3" points="174.94 162.21 177.81 173.4 172.31 174.83 169.44 163.65 169.5 163.64 169.5 163.62 174.94 162.21"/><polygon class="cls-3" points="152.72 162.23 149.85 173.42 155.35 174.85 158.22 163.67 158.16 163.66 158.16 163.64 152.72 162.23"/><path class="cls-3" d="M140.63,88h21.44a3.48,3.48,0,0,1,3.52,2.53l1.3,5.75c.32.84.26,3.51-2,3.51H137.37A2.3,2.3,0,0,1,135,96.63l2-6.08A3.87,3.87,0,0,1,140.63,88Zm-3.48-3c-2.86,0-4.14,1.59-5.19,4.19l-3.51,10.57h-.06a3.81,3.81,0,0,0-3.85,3.84v10.06a3.81,3.81,0,0,0,3.85,3.84h45.47a3.81,3.81,0,0,0,3.85-3.84V103.68a3.77,3.77,0,0,0-3.57-3.77L171,89.27c-.92-2.34-2.24-4.19-5.11-4.19Zm25.73,33.67h8.92v5.11a2.5,2.5,0,0,1-2.54,2.54h-3.85a2.5,2.5,0,0,1-2.53-2.54v-5.11Zm6-13a3,3,0,1,1-3,3,3,3,0,0,1,3-3Zm-35.45,0a3,3,0,1,1-3,3,3,3,0,0,1,3-3Zm-3,13h8.93v5.11a2.51,2.51,0,0,1-2.54,2.54H133a2.51,2.51,0,0,1-2.55-2.54v-5.11Z"/><path class="cls-3" d="M191.07,107.22h10.7a1.75,1.75,0,0,1,1.77,1.27l.64,2.87c.17.42.15,1.76-1,1.76H189.42a1.15,1.15,0,0,1-1.2-1.6l1-3a1.9,1.9,0,0,1,1.84-1.27Zm-1.75-1.48c-1.43,0-2.08.79-2.59,2.1L185,113.12h0A1.91,1.91,0,0,0,183,115v5a1.9,1.9,0,0,0,1.92,1.92h22.74a1.91,1.91,0,0,0,1.92-1.92v-5a1.9,1.9,0,0,0-1.79-1.89l-1.56-5.31c-.46-1.17-1.12-2.1-2.55-2.1Zm12.85,16.84h4.46v2.55a1.25,1.25,0,0,1-1.27,1.27h-1.92a1.25,1.25,0,0,1-1.27-1.27v-2.55Zm3-6.51a1.48,1.48,0,1,1-1.47,1.48,1.48,1.48,0,0,1,1.47-1.48Zm-17.71,0a1.48,1.48,0,1,1-1.49,1.48,1.5,1.5,0,0,1,1.49-1.48ZM186,122.58h4.45v2.55a1.25,1.25,0,0,1-1.28,1.27h-1.91a1.24,1.24,0,0,1-1.26-1.27v-2.55Z"/><path class="cls-3" d="M100.91,107.22h10.72a1.74,1.74,0,0,1,1.76,1.27l.65,2.87c.16.42.13,1.76-1,1.76H99.29a1.15,1.15,0,0,1-1.21-1.6l1-3a1.88,1.88,0,0,1,1.82-1.27Zm-1.75-1.48c-1.43,0-2.07.79-2.59,2.1l-1.76,5.28h0A1.9,1.9,0,0,0,92.85,115v5A1.9,1.9,0,0,0,94.77,122H117.5a1.91,1.91,0,0,0,1.93-1.92v-5a1.9,1.9,0,0,0-1.79-1.89l-1.57-5.31c-.46-1.17-1.12-2.1-2.55-2.1ZM112,122.58h4.46v2.55a1.25,1.25,0,0,1-1.27,1.27h-1.92a1.25,1.25,0,0,1-1.27-1.27v-2.55Zm3-6.51a1.48,1.48,0,1,1-1.48,1.48,1.49,1.49,0,0,1,1.48-1.48Zm-17.72,0a1.48,1.48,0,1,1-1.48,1.48,1.48,1.48,0,0,1,1.48-1.48Zm-1.47,6.51h4.45v2.55A1.24,1.24,0,0,1,99,126.4H97.1a1.26,1.26,0,0,1-1.28-1.27v-2.55Z"/><path class="cls-3" d="M136.48,206.29h6.7a1.34,1.34,0,1,1,0,2.67h-6.7v6.69a1.34,1.34,0,0,1-2.68,0V199.6a1.35,1.35,0,0,1,1.34-1.34h10.71a1.34,1.34,0,0,1,0,2.68h-9.37v5.35Z"/><path class="cls-3" d="M168.6,199.61a1.34,1.34,0,0,0-1.34-1.34h-2.67a1.33,1.33,0,0,0-1.33,1.19l-4,12-4.08-12.3a.14.14,0,0,1,0-.06,1.33,1.33,0,0,0-1.26-.89h-2.68a1.34,1.34,0,0,0-1.33,1.34v16.05a1.33,1.33,0,1,0,2.66,0V200.94h0l5.47,15.32a1.35,1.35,0,0,0,1.19.73,1.37,1.37,0,0,0,1.21-.74l5.5-15.31v14.71a1.33,1.33,0,1,0,2.66,0v-16Z"/><polygon class="cls-6" points="196.19 77.89 194.01 79.43 193.81 79.57 193.66 79.37 190.59 75.04 190.46 74.84 190.66 74.7 192.82 73.16 193.03 73.01 193.16 73.21 196.24 77.55 196.38 77.74 196.19 77.89"/><polygon class="cls-6" points="197.74 69.06 198.44 71.62 198.5 71.86 198.28 71.92 193.16 73.32 192.91 73.39 192.85 73.15 192.15 70.59 192.09 70.35 192.31 70.29 197.44 68.89 197.68 68.82 197.74 69.06"/><polygon class="cls-6" points="187.38 79.48 185.19 77.97 184.99 77.83 185.13 77.63 188.16 73.26 188.28 73.06 188.5 73.2 190.68 74.71 190.88 74.85 190.74 75.05 187.72 79.42 187.59 79.62 187.38 79.48"/><polygon class="cls-6" points="189.43 70.65 188.53 73.16 188.44 73.39 188.22 73.3 183.22 71.52 182.99 71.43 183.06 71.2 183.97 68.7 184.04 68.47 184.28 68.55 189.28 70.34 189.5 70.42 189.43 70.65"/><polygon class="cls-6" points="192.1 70.61 189.44 70.63 189.21 70.63 189.21 70.38 189.18 65.07 189.16 64.83 189.41 64.83 192.07 64.81 192.31 64.81 192.31 65.06 192.34 70.37 192.35 70.61 192.1 70.61"/><path class="cls-3" d="M289,186.53H10.52V132.6H289v53.93Zm-281,2.24H291.51v-58.4H8.05v58.4Z"/><path class="cls-6" d="M83.85,103.72l-2.17,1.54-.2.14-.14-.2-3-4.22-3,4.28-.14.2-.2-.14-2.19-1.51-.2-.14.14-.2,3-4.35-4.93-1.76-.23-.08.08-.23.9-2.5.08-.23.23.08,4.93,1.76,0-5.24v-.24h.25l2.66,0H80v.24l0,5.22,5.09-1.39.24-.06.06.24.71,2.57.06.24-.24.06-5,1.38,3,4.24.14.2-.2.12ZM77.1,96.46v0l-.9,2.5,0,0,2.15,1.49h0L80.49,99l0,0-.7-2.53h0l-2.66,0Z"/><polygon class="cls-6" points="114.48 77.89 112.31 79.43 112.11 79.57 111.97 79.37 108.91 75.04 108.77 74.84 108.97 74.7 111.14 73.16 111.33 73.01 111.47 73.21 114.55 77.54 114.69 77.74 114.48 77.89"/><polygon class="cls-6" points="116.05 69.06 116.75 71.62 116.81 71.86 116.58 71.92 111.45 73.32 111.22 73.39 111.17 73.15 110.45 70.59 110.39 70.35 110.63 70.29 115.75 68.89 115.97 68.82 116.05 69.06"/><polygon class="cls-6" points="105.69 79.48 103.5 77.97 103.3 77.83 103.44 77.63 106.45 73.26 106.59 73.06 106.8 73.2 108.98 74.71 109.19 74.85 109.05 75.05 106.03 79.42 105.89 79.62 105.69 79.48"/><polygon class="cls-6" points="107.72 70.65 106.83 73.16 106.75 73.39 106.52 73.3 101.52 71.52 101.28 71.43 101.38 71.2 102.27 68.7 102.34 68.47 102.58 68.55 107.58 70.34 107.81 70.42 107.72 70.65"/><polygon class="cls-6" points="110.42 70.61 107.75 70.63 107.5 70.63 107.5 70.38 107.47 65.07 107.47 64.83 107.72 64.83 110.38 64.81 110.63 64.81 110.63 65.06 110.66 70.37 110.66 70.61 110.42 70.61"/><path class="cls-6" d="M156.26,67.77l-2.18,1.54-.2.14-.14-.2-3-4.22-3,4.28-.14.2-.2-.14-2.19-1.51-.2-.14.14-.2,3-4.35-4.93-1.76-.23-.08.08-.23.9-2.5.08-.23.23.08,4.93,1.76,0-5.24v-.24h.24l2.66,0h.24V55l0,5.22,5.09-1.39.24-.06.06.24.71,2.57.06.24-.24.06-5,1.38,3,4.24.14.2-.18.11Zm-6.75-7.25,0,0L148.6,63l0,.05,2.15,1.49h0L152.9,63l0,0-.71-2.53h0l-2.66,0Z"/><polygon class="cls-6" points="226.66 103.72 224.5 105.26 224.29 105.4 224.16 105.2 221.09 100.87 220.94 100.67 221.13 100.53 223.31 98.99 223.51 98.85 223.66 99.05 226.72 103.38 226.87 103.58 226.66 103.72"/><polygon class="cls-6" points="228.22 94.89 228.93 97.46 229 97.69 228.75 97.76 223.63 99.16 223.41 99.22 223.34 98.99 222.63 96.42 222.56 96.19 222.81 96.12 227.93 94.72 228.16 94.66 228.22 94.89"/><polygon class="cls-6" points="217.87 105.32 215.68 103.8 215.47 103.67 215.62 103.46 218.63 99.1 218.78 98.9 218.97 99.03 221.16 100.55 221.37 100.69 221.22 100.89 218.21 105.25 218.06 105.46 217.87 105.32"/><polygon class="cls-6" points="219.91 96.49 219 98.99 218.93 99.22 218.69 99.14 213.69 97.35 213.47 97.27 213.54 97.04 214.44 94.53 214.53 94.3 214.75 94.38 219.75 96.17 219.99 96.26 219.91 96.49"/><polygon class="cls-6" points="222.59 96.45 219.94 96.46 219.69 96.47 219.69 96.22 219.66 90.91 219.66 90.67 219.9 90.66 222.56 90.65 222.81 90.65 222.81 90.89 222.84 96.2 222.84 96.44 222.59 96.45"/><path class="cls-6" d="M86.74,220.81l2.66,2.06,2.49-3.2a8.71,8.71,0,0,0,.69.6,6.4,6.4,0,0,0,4.29,1.63,3.86,3.86,0,0,0,2.75-1.61,3.63,3.63,0,0,0,.66-3.27,6.67,6.67,0,0,0-2.52-3.18,29.22,29.22,0,0,0-3.68-2.51l-7.34,9.48Zm8.58-5.58a5.74,5.74,0,0,1,.92.63c1.08.83,1.24,1.69.71,2.39-.68.87-1.78.77-2.82,0a5.3,5.3,0,0,1-.67-.58l1.86-2.4ZM120,236.7l-.07,3.09,3.57,1.2,0-12.8-4.4-1.47L111.54,237l3.4,1.14,1.67-2.55,3.34,1.1Zm-2.1-3.32,1.22-1.83c.41-.6.86-1.38,1.27-2h0c0,.73-.06,1.65-.07,2.37l-.06,2.24-2.39-.8Zm28.19-.94-.11,3.35a12.24,12.24,0,0,1-.57,3.42A10.6,10.6,0,0,1,144,241.9l-1.12.07-.06,4.05,2.7.08.13-1.53,7.41.24,0,1.51,2.71.08.23-4-1.36-.15.31-9.52-9-.3Zm3.06,2.82,2.41.08-.22,6.71-3.85-.13a8.62,8.62,0,0,0,.92-1.82,11.51,11.51,0,0,0,.69-3.49l0-1.35Zm22.83-5.59L176,241.1l3.9-1.38.71-4a36.35,36.35,0,0,0,.54-5.27l.05,0a41,41,0,0,0,1.5,4.91l1.06,3,3-1-4.06-11.43-3.41,1.21-.71,4.57c-.24,1.58-.51,3.56-.68,5.4l-.07,0c-.53-1.76-1.17-3.63-1.79-5.36l-1.1-3.09-3,1Zm38-6.38c3.18-2.68,3.43-6.38,1.08-9.2s-5.86-3.19-9-.55-3.36,6.33-1,9.17c2.25,2.67,5.82,3.16,8.89.59Zm-1.58-2.11c-1.39,1.17-3.27.73-4.61-.87s-1.48-3.55-.09-4.72,3.3-.7,4.65.9,1.5,3.49.07,4.68Z"/></svg>