<svg xmlns="http://www.w3.org/2000/svg" id="Слой_1" data-name="Слой 1" viewBox="0 0 370 370"><defs><style>.cls-1{fill:#fff;}</style></defs><title>Европа Плюс white</title><g id="Слой_1-2" data-name="Слой 1-2"><path class="cls-1" d="M43.35,129.53c-2.3,5.68-1.3,9.07,2,11.24-11.69,4.72-17.3,10.6-21,18.09-2.53,5.21-3,10.81-1.12,14.28,2.32,4.38,6.41,7.63,18,7.53s27.93-4.17,30-4.6L79,161c-3.58.52-23.78,3.86-29.11,4-4.16,0-7.33-.58-7-5s6.34-9.75,17.34-11.18,14.43-1.75,16.17-2l7-13.75c-2.38.25-17.06,1.83-17.93,1.9s-4,.75-5-1.29.45-8.49,16.7-9.85S98,122,98,122l7-13.57-27.82,2.08C54.88,112.16,45.63,123.85,43.35,129.53Z"/><path class="cls-1" d="M130,123.56s-13.69,27-17.43,34.27c-2.83.37-3.76.64-6.49,1s-3.73.06-4.16-.93-.59-2.9,15.7-32.9L99.5,126.5s-8,16.28-13.54,26.65-4.73,14.41-2.11,16.91c1.28,1.24,4,3.22,10.93,2.16s10.77-1.5,29.43-4.57l23.39-45.59Z"/><path class="cls-1" d="M171.59,119.72c-5.23.68-19.72,2.4-30.35,22.32s-12.83,25-12.83,25L146,164.38s6.48-12.67,11.49-22.51,11.7-9.88,17.6-10.75l6.4-12.29S176.82,119.07,171.59,119.72Z"/><path class="cls-1" d="M199.54,137.14a28.84,28.84,0,0,1-5.69,7.86,13.19,13.19,0,0,1-6.4,3.78c-2,.35-2.49-.15-2.79-.49a3.42,3.42,0,0,1-.45-2,29.13,29.13,0,0,1,3-7.7,32.61,32.61,0,0,1,6.32-8.52A11.18,11.18,0,0,1,199.4,127c.52,0,3-.27,3,1.66s-1.33,5.52-2.94,8.51Zm7.3-21.28a37.69,37.69,0,0,0-13.32,3.28C189.66,121,182,125.64,177,132s-8.07,11.32-8.72,18,2.88,9.19,6.14,9.85a22.09,22.09,0,0,0,8.65,0,45.69,45.69,0,0,0,9.89-3.06,50.05,50.05,0,0,0,9.15-5.71,39,39,0,0,0,7.13-7.11,50.53,50.53,0,0,0,5.82-8.4c.9-1.64,5.26-10.57,2.33-15.13s-6.62-4.76-10.55-4.57Z"/><path class="cls-1" d="M243,128a11.57,11.57,0,0,1-5.74,4.72,27.09,27.09,0,0,1-5.13.86l5.63-10.83c3.11-.24,5-.56,6,.55s.44,2.39-.72,4.7Zm13.63-11.75c-1.91-3.31-6.46-4.1-12.52-3.57s-10.47,1.19-15,1.55l-21.3,41,14.28-2,4.42-8.71A73.4,73.4,0,0,0,238,142.16,29.92,29.92,0,0,0,255.05,127c2.1-4.32,3.46-7.45,1.56-10.75Z"/><path class="cls-1" d="M274.44,135.71c-1,.15-5.08,1.27-5.91-1s-.11-3.93,1.73-7.54c1.18-2.21,4.9-8.33,12.79-8.27Zm7-26.44c-14.8,1.8-21.82,13.8-24,18.22s-3.28,11.93-1.36,14.8a9.89,9.89,0,0,0,9,4.37c3.67-.32,8.94-1.41,17.23-2.79l18.88-36.5s-4.9.12-19.71,1.9Z"/><path class="cls-1" d="M79.16,208.54a32.78,32.78,0,0,1-5,1c3.3-6.11,7.09-14.31,7.55-14.63a27.42,27.42,0,0,1,5.15-1c.81,0,4.61-.45,4.44,2.59s-1.53,4.43-3.7,7.11-7.2,4.5-8.5,4.86Zm27.56-22.86c-2.43-3.11-8.67-3.75-11.74-3.87S78.55,184,69.45,185.68c-10,19.5-14.9,29-26.63,52.09,8.4-2.06,19.23-4.76,19.23-4.76l5.69-10.71c4-.79,11.77-2.56,15.09-3.59A44.7,44.7,0,0,0,96.05,212a33.53,33.53,0,0,0,10.86-13.85C109.57,192.07,109.14,188.79,106.72,185.68Z"/><path class="cls-1" d="M122.49,207.13c-.67-1.15.24-2.62,1.43-5.23s10.42-20.08,14.42-27.83l-17.17,2.85c-1,2-12.3,24.09-15.17,29.52s-3.27,9.28-2.24,11.49,3.92,3.87,7.46,3.31,14.32-3.31,14.32-3.31l6.24-12.07C127.35,206.85,123.15,208.28,122.49,207.13Z"/><path class="cls-1" d="M177.54,167.5l-16.27,31.17c-2.52.65-4.24,1.15-5.74,1.5-.53.13-2.76.54-3.21-.27s-.39-1.53,1.65-5.42c1.84-3.54,6.86-13.08,13.26-25.25l-16.78,2.84c-2.82,5.51-11.23,21.82-13.81,27.11s-3.2,7.55-2.24,10a7.15,7.15,0,0,0,6.82,4.55c3.41,0,2.62,0,10-1.82l20.71-5,21.9-42.16Z"/><path class="cls-1" d="M210.75,162.16c-9.57,2-16.6,8.3-18.39,11.65s-2.22,6-1.13,8.73,6.59,3.57,9.17,4.21,2.46,1.5,1.45,2.43-3,1.38-6.8,2.18-7.18,1.51-12.75,2.71c-2.49,4.77-3,5.73-6.26,11.94l25.54-6.21c6.1-1.49,12.7-6.15,14.4-9.53s2.26-5.36,1.56-8.23-3.53-4.51-5.92-5.17-6.57-.8-6.57-1.93,1-1.9,4.17-2.56,9.84-2,16.14-3.23l5.49-10.62S220.32,160.19,210.75,162.16Z"/><path class="cls-1" d="M367.89,135.39l-49,8.3-4.84-46.62-27.68,52.25-47.8,8.33,32.49,16c-31.51,30.88-76.34,52.08-155.26,77.14,36.72-6.29,79.79-16.32,109.66-26.67,27.18-9.38,51.29-20.41,71.86-32.76L330,206.48l-7-34.18C344.53,155.18,362.62,139.91,367.89,135.39Z"/><path class="cls-1" d="M116.12,250.73c35-6,75.44-16,104.26-25.69,44.41-22.36,84-59.25,96.76-98.75l-3-29.06-27.76,52.11-47.45,8.29,32.12,16C238.87,205.18,195.05,225.67,116.12,250.73Z"/><path class="cls-1" d="M286.44,149.3l-47.85,8.34,32.56,16a171,171,0,0,0,15.3-24.29Z"/><path class="cls-1" d="M42.82,252.07a456.92,456.92,0,0,0,92-17.36,555.44,555.44,0,0,0,69.46-25.64C177.2,216.77,118.3,233.23,42.82,252.07Z"/></g></svg>