<?xml version="1.0" encoding="utf-8"?>
<!-- Generator: Adobe Illustrator 23.1.0, SVG Export Plug-In . SVG Version: 6.00 Build 0)  -->
<svg version="1.1" id="Слой_1" xmlns="http://www.w3.org/2000/svg" xmlns:xlink="http://www.w3.org/1999/xlink" x="0px" y="0px"
	 viewBox="0 0 90 90" style="enable-background:new 0 0 90 90;" xml:space="preserve">
<style type="text/css">
	.st0{fill:#E41E40;}
	.st1{fill:#FFFFFF;}
</style>
<path class="st0" d="M90,67l-14.8-5.5L0,65.4L5.4,16l77.3,6.7l3.6,30.5L90,67z"/>
<path d="M53.7,74v-4.3l-0.9,0.8L52,70.1l2.3-2.1H55v6H53.7z"/>
<path d="M57.1,70.5c0,1.5,1.1,2.5,2.4,2.5c1.4,0,2.4-1,2.4-2.5c0-1.4-1.1-2.5-2.4-2.5C58.2,68,57.1,69.1,57.1,70.5L57.1,70.5z
	 M63,70.5c0,1.9-1.6,3.5-3.5,3.5c-1.9,0-3.5-1.6-3.5-3.5c0-1.9,1.6-3.5,3.5-3.5C61.4,67,63,68.6,63,70.5z"/>
<path d="M64,74v-0.6l2.3-2.6c0.5-0.6,0.8-1,0.8-1.6c0-0.8-0.5-1.2-1-1.2H66c-0.4,0-0.9,0.3-1.3,0.9l-0.5-0.7
	c0.6-0.8,1.2-1.2,1.9-1.2h0.1c1.1,0,1.8,0.9,1.8,2c0,1-0.5,1.7-1.4,2.7L65.4,73H68v1L64,74L64,74z"/>
<path d="M71,73.5c0,0.3-0.2,0.5-0.5,0.5c-0.3,0-0.5-0.2-0.5-0.5c0-0.3,0.2-0.5,0.5-0.5C70.8,73,71,73.2,71,73.5z"/>
<path d="M74,69.9c0.5,0,1-0.3,1-1c0-0.7-0.5-1-1-1c-0.5,0-1,0.3-1,1C73,69.6,73.5,69.9,74,69.9z M75.2,71.8c0-0.7-0.5-1.2-1.2-1.2
	c-0.5,0-1.2,0.3-1.2,1.2c0,0.8,0.5,1.2,1.2,1.2S75.2,72.5,75.2,71.8z M76,72c0,1.2-0.7,2-2,2h0c-1.2,0-2-0.8-2-2
	c0-0.8,0.4-1.4,1-1.7c-0.4-0.2-0.8-0.7-0.8-1.5c0-0.9,0.7-1.8,1.8-1.8H74c1.1,0,1.7,0.8,1.7,1.8c0,0.8-0.4,1.3-0.8,1.5
	C75.6,70.5,76,71.1,76,72z"/>
<path d="M42.8,70v1h-2.8v3H39v-7h4v1h-3.1V70H42.8z"/>
<path d="M49.9,74v-5l-2.4,3l-2.4-3v5H44v-7h0.6l2.9,3.5l2.9-3.5H51v7L49.9,74L49.9,74z"/>
<path class="st1" d="M14.1,43l-2-3.2l-0.6,0.6V43H10v-7h1.6v2.3l2.3-2.3h2.1l-2.7,2.7L16,43H14.1z"/>
<path class="st1" d="M18.6,38.8h1c0.2,0,0.4-0.1,0.6-0.2c0.2-0.1,0.2-0.3,0.2-0.5c0-0.2-0.1-0.4-0.2-0.5c-0.2-0.1-0.3-0.2-0.6-0.2
	h-1V38.8z M17,36h2.6c0.7,0,1.2,0.2,1.7,0.6c0.5,0.4,0.7,0.9,0.7,1.5c0,0.6-0.2,1.1-0.7,1.5c-0.5,0.4-1,0.6-1.7,0.6h-1V43H17V36z"/>
<path class="st1" d="M24.2,40.3h1.7l-0.8-1.6L24.2,40.3z M27.3,43l-0.7-1.3h-3.2L22.7,43H21l3.9-7h0.5l3.6,7H27.3z"/>
<path class="st1" d="M35.9,36.7l-1.1,1c-0.4-0.2-0.8-0.3-1.3-0.3c-0.5,0-0.9,0.1-1.3,0.2c-0.4,0.2-0.7,0.4-1,0.7
	c-0.3,0.3-0.4,0.7-0.4,1.2c0,0.5,0.1,0.9,0.4,1.2c0.3,0.3,0.6,0.6,1,0.7c0.4,0.1,0.9,0.2,1.3,0.2c0.5,0,0.9-0.2,1.3-0.4l1.1,1
	c-0.8,0.5-1.7,0.8-2.7,0.8c-1.2,0-2.2-0.3-3-1c-0.8-0.7-1.3-1.5-1.3-2.5c0-1,0.4-1.8,1.3-2.5c0.8-0.7,1.8-1,3-1
	C34.3,36,35.1,36.2,35.9,36.7z"/>
<path class="st1" d="M40.4,38.7V36H42v7h-1.6v-2.9h-2.9V43H36v-7h1.6v2.7H40.4z"/>
<path class="st1" d="M48.7,38c-0.5-0.4-1-0.6-1.7-0.6c-0.7,0-1.2,0.2-1.7,0.6c-0.5,0.4-0.7,0.9-0.7,1.5c0,0.6,0.2,1.1,0.7,1.5
	c0.5,0.4,1,0.6,1.7,0.6c0.7,0,1.2-0.2,1.7-0.6c0.5-0.4,0.7-0.9,0.7-1.5C49.4,38.9,49.2,38.4,48.7,38z M44.2,37c0.8-0.7,1.7-1,2.8-1
	c1.1,0,2,0.3,2.8,1c0.8,0.7,1.2,1.5,1.2,2.5c0,1-0.4,1.8-1.2,2.5c-0.8,0.7-1.7,1-2.8,1c-1.1,0-2-0.3-2.8-1c-0.8-0.7-1.2-1.5-1.2-2.5
	C43,38.5,43.4,37.7,44.2,37z"/>
<path class="st1" d="M53.8,37.6c-0.1,0.1-0.2,0.3-0.2,0.5c0,0.2,0.1,0.4,0.2,0.5c0.1,0.1,0.3,0.2,0.5,0.2h1.3v-1.4h-1.3
	C54.1,37.4,53.9,37.5,53.8,37.6z M53.4,40c-0.4-0.2-0.7-0.4-0.9-0.8c-0.2-0.3-0.3-0.7-0.3-1.1c0-0.6,0.2-1.1,0.6-1.5
	c0.4-0.4,0.9-0.6,1.5-0.6H57v7h-1.4v-2.8h-0.7L53.5,43H52L53.4,40z"/>
<path class="st1" d="M60.3,38.8h0.8c0.2,0,0.3-0.1,0.5-0.2c0.1-0.1,0.2-0.3,0.2-0.5c0-0.2-0.1-0.4-0.2-0.5c-0.1-0.1-0.3-0.2-0.5-0.2
	h-0.8V38.8z M59,36h2.1c0.5,0,1,0.2,1.4,0.6c0.4,0.4,0.6,0.9,0.6,1.5c0,0.6-0.2,1.1-0.6,1.5c-0.4,0.4-0.8,0.6-1.4,0.6h-0.8V43H59V36
	z"/>
<path class="st1" d="M70.9,36.7l-1.1,1c-0.4-0.2-0.8-0.3-1.3-0.3c-0.5,0-0.9,0.1-1.3,0.2c-0.4,0.2-0.7,0.4-1,0.7
	c-0.3,0.3-0.4,0.7-0.4,1.2c0,0.5,0.1,0.9,0.4,1.2c0.3,0.3,0.6,0.6,1,0.7c0.4,0.1,0.9,0.2,1.3,0.2c0.5,0,0.9-0.2,1.3-0.4l1.1,1
	c-0.8,0.5-1.7,0.8-2.7,0.8c-1.2,0-2.2-0.3-3-1c-0.8-0.7-1.3-1.5-1.3-2.5c0-1,0.4-1.8,1.3-2.5c0.8-0.7,1.8-1,3-1
	C69.3,36,70.1,36.2,70.9,36.7z"/>
<path class="st1" d="M75.5,43l-1.7-3.2l-0.5,0.6V43H72v-7h1.3v2.3l1.9-2.3h1.7l-2.3,2.7L77,43H75.5z"/>
<path class="st1" d="M58,47h-2v7h2V47z"/>
<path class="st1" d="M52.3,52.6h0.8c0.2,0,0.3-0.1,0.5-0.2c0.1-0.1,0.2-0.3,0.2-0.5c0-0.2-0.1-0.4-0.2-0.5c-0.1-0.1-0.3-0.2-0.5-0.2
	h-0.8V52.6z M51,47h1.3v2.8h0.8c0.5,0,1,0.2,1.4,0.6c0.4,0.4,0.6,0.9,0.6,1.5c0,0.6-0.2,1.1-0.6,1.5c-0.4,0.4-0.8,0.6-1.4,0.6H51V47
	z"/>
<path class="st1" d="M32.2,51.3h1.7l-0.8-1.6L32.2,51.3z M35.3,54l-0.7-1.3h-3.2L30.7,54H29l3.9-7h0.4l3.6,7H35.3z"/>
<path class="st1" d="M47.4,49.7V47H49v7h-1.6v-2.9h-2.9V54H43v-7h1.6v2.7H47.4z"/>
<path class="st1" d="M17,54v-7h5v1.4h-3.3V54H17z"/>
<path class="st1" d="M29,54h-1.6l-1.9-4l-1.9,4H22l3.3-7h0.4L29,54z"/>
<path class="st1" d="M39.1,52.8h0.9c0.2,0,0.4-0.1,0.5-0.2c0.2-0.2,0.2-0.4,0.2-0.6c0-0.2-0.1-0.4-0.2-0.6c-0.2-0.2-0.3-0.3-0.5-0.3
	h-0.9V52.8z M39.1,49.8h0.6c0.2,0,0.4-0.1,0.5-0.2c0.2-0.2,0.2-0.3,0.2-0.6c0-0.2-0.1-0.4-0.2-0.6c-0.2-0.1-0.3-0.2-0.5-0.2h-0.6
	V49.8z M38,47h1.7c0.5,0,0.9,0.2,1.3,0.6c0.4,0.4,0.5,0.9,0.5,1.4c0,0.4-0.1,0.8-0.3,1.1c0.5,0.4,0.7,1,0.7,1.7
	c0,0.6-0.2,1.1-0.6,1.5c-0.4,0.4-0.8,0.6-1.4,0.6H38V47z"/>
<path class="st1" d="M59.4,54H59v-7h1.5v3.9l4.1-3.9H65v7h-1.5v-4.1L59.4,54z"/>
<path class="st1" d="M61.8,46L61,47h3v-1H61.8z"/>
<path class="st1" d="M20.2,27.7c0-0.4-0.3-0.7-0.6-0.7h-0.7v1.5h0.7C19.9,28.4,20.2,28.1,20.2,27.7z M21,27.7c0,0.9-0.6,1.7-1.4,1.7
	h-0.7V31H18v-5h1.6C20.4,26,21,26.7,21,27.7z"/>
<path class="st1" d="M24.6,29.2L24,27.1l-0.6,2.1H24.6z M24.8,30.1h-1.7L22.9,31H22l1.5-5h1.1l1.5,5h-0.9L24.8,30.1z"/>
<path class="st1" d="M29.7,30.1l0-3.1h-1v1.4c0,0.9-0.1,1.4-0.3,1.7H29.7z M31,30.1l0,1.9h-0.9l0-1h-2.3l0,1H27v-1.9h0.4
	c0.2-0.3,0.4-0.8,0.4-1.7V26h2.7v4.1H31z"/>
<path class="st1" d="M34.9,27.9L32.8,31H32v-5h1.1v3.1l2.1-3.1H36v5h-1.1V27.9z"/>
<path class="st1" d="M41.1,28.5c0-0.9-0.7-1.6-1.6-1.6c-0.9,0-1.6,0.7-1.6,1.6c0,0.9,0.7,1.6,1.6,1.6C40.4,30.1,41.1,29.4,41.1,28.5
	z M37,28.5c0-1.4,1.1-2.5,2.5-2.5c1.4,0,2.5,1.1,2.5,2.5c0,1.4-1.1,2.5-2.5,2.5C38.1,31,37,29.9,37,28.5z"/>
</svg>
