<svg width="90" height="90" viewBox="0 0 90 90" fill="none" xmlns="http://www.w3.org/2000/svg">
<path d="M31.7375 51.387H33.32L32.5599 49.7629L31.7375 51.387Z" fill="white"/>
<path d="M39.548 49.5416C39.7217 49.3817 39.8083 49.1806 39.8083 48.9377C39.8083 48.6945 39.7217 48.497 39.548 48.344C39.3744 48.1919 39.1802 48.1149 38.9653 48.1149H38.3303V49.7807H38.9653C39.1802 49.7807 39.3744 49.7015 39.548 49.5416Z" fill="white"/>
<path d="M39.3918 51.2224H38.3303V52.9812H39.3918C39.6346 52.9812 39.8445 52.8965 40.0218 52.7269C40.1991 52.5565 40.287 52.3503 40.287 52.1071C40.287 51.8638 40.1991 51.6563 40.0218 51.4826C39.8445 51.3095 39.6346 51.2224 39.3918 51.2224Z" fill="white"/>
<path d="M54.7592 37.5197H53.4682C53.2666 37.5197 53.0948 37.5925 52.9528 37.7386C52.8107 37.8843 52.7393 38.0575 52.7393 38.2591C52.7393 38.4602 52.8107 38.632 52.9528 38.7745C53.0948 38.9165 53.2666 38.988 53.4682 38.988H54.7592V37.5197Z" fill="white"/>
<path d="M46.45 37.4256C45.8183 37.4256 45.28 37.6478 44.8365 38.0922C44.3921 38.5362 44.1694 39.0745 44.1694 39.7058C44.1694 40.3371 44.3921 40.8754 44.8365 41.3193C45.28 41.7637 45.8183 41.9859 46.45 41.9859C47.0814 41.9859 47.6197 41.7637 48.0636 41.3193C48.5075 40.8754 48.7302 40.3371 48.7302 39.7058C48.7302 39.0745 48.5075 38.5362 48.0636 38.0922C47.6197 37.6478 47.0814 37.4256 46.45 37.4256Z" fill="white"/>
<path d="M52.4218 51.2699H51.5156V52.7382H52.4218C52.6225 52.7382 52.7943 52.6649 52.9372 52.5192C53.0793 52.3735 53.1507 52.1999 53.1507 51.9988C53.1507 51.7972 53.0793 51.6254 52.9372 51.4833C52.7943 51.3409 52.6225 51.2699 52.4218 51.2699Z" fill="white"/>
<path d="M60.5647 38.7742C60.7072 38.6321 60.7782 38.4599 60.7782 38.2588C60.7782 38.0576 60.7072 37.884 60.5647 37.7383C60.4222 37.5926 60.2504 37.5198 60.0493 37.5198H59.1436V38.9877H60.0493C60.2504 38.9877 60.4222 38.9166 60.5647 38.7742Z" fill="white"/>
<path d="M24.1094 40.5566H25.6922L24.9322 38.9325L24.1094 40.5566Z" fill="white"/>
<path d="M23.5386 27.772L22.8853 29.8231H24.1919L23.5386 27.772Z" fill="white"/>
<path d="M29.2854 27.5839H28.1336V29.016C28.1336 29.8732 27.9724 30.3712 27.7827 30.6873H29.2854V27.5839Z" fill="white"/>
<path d="M72.029 40.5993V43.3582H70.5707V36.0706H72.029V38.4236L74.1635 36.0706H76.1303L73.5798 38.9234L76.1935 43.3582H74.4544L72.5911 40.0266L72.029 40.5993ZM66.9931 43.5144C65.9513 43.5144 65.0616 43.1452 64.3222 42.4057C63.5823 41.6668 63.213 40.7766 63.213 39.7353C63.213 38.6944 63.5823 37.8042 64.3222 37.0648C65.0612 36.3258 65.9513 35.9561 66.9927 35.9561C67.8595 35.9561 68.6374 36.2232 69.3246 36.7578L68.3877 37.8404C68.0404 37.6186 67.657 37.4986 67.2369 37.4812C66.8172 37.4643 66.4319 37.5385 66.0814 37.7052C65.731 37.8715 65.4359 38.1336 65.1963 38.4909C64.9567 38.8488 64.8376 39.2634 64.8376 39.7353C64.8376 40.2282 64.9622 40.6584 65.2119 41.0263C65.462 41.3942 65.769 41.6581 66.1337 41.8175C66.4979 41.9774 66.8951 42.0397 67.3253 42.0049C67.7559 41.9705 68.1376 41.8244 68.4706 41.5678L69.4075 42.6398C68.7002 43.2231 67.8948 43.5144 66.9931 43.5144ZM64.2878 54.1694H62.8309V49.911L58.7288 54.1694H58.3435V46.8708H59.8013V50.9523L63.8301 46.8708H64.2878V54.1694ZM62.9629 45.6228V46.9656H60.3817L61.1024 45.6228H62.9629ZM57.7085 36.0706H60.072C60.6763 36.0706 61.1917 36.2855 61.6183 36.7161C62.0452 37.1463 62.2583 37.6635 62.2583 38.2674C62.2583 38.8712 62.0452 39.3866 61.6183 39.8136C61.1917 40.2401 60.6763 40.4536 60.072 40.4536H59.1668V43.3687H57.7085V36.0706ZM56.6896 54.2106H55.2313V46.8602H56.6896V54.2106ZM53.9751 40.4435L52.6108 43.3687H51.0591L52.5073 40.2456C52.1183 40.072 51.8072 39.8067 51.5745 39.4489C51.3431 39.0916 51.2263 38.6944 51.2263 38.2568C51.2263 37.653 51.4398 37.1362 51.8663 36.7056C52.2938 36.2754 52.8092 36.0601 53.4125 36.0601H56.1604V43.3582H54.704V40.4435H53.9751ZM53.9279 53.5655C53.5019 53.9957 52.9865 54.2106 52.3826 54.2106H50.0186V46.9124H51.4769V49.8276H52.3826C52.9865 49.8276 53.5019 50.0411 53.9284 50.4681C54.3554 50.8951 54.5689 51.4105 54.5689 52.0143C54.5689 52.6176 54.3554 53.1349 53.9279 53.5655ZM46.4699 43.4938C45.429 43.4938 44.5384 43.1241 43.7994 42.3847C43.0604 41.6457 42.6907 40.7555 42.6907 39.7146C42.6907 38.6733 43.0609 37.7831 43.7999 37.0441C44.5389 36.3047 45.429 35.935 46.4704 35.935C47.5108 35.935 48.4014 36.3047 49.1404 37.0441C49.8798 37.7831 50.2495 38.6733 50.2495 39.7146C50.2495 40.7555 49.8798 41.6457 49.1404 42.3847C48.4014 43.1241 47.5103 43.4938 46.4699 43.4938ZM48.4019 54.1483H46.9436V51.1081H44.2475V54.1483H42.7897V46.8607H44.2475V49.6507H46.9436V46.8607H48.4019V54.1483ZM40.9498 53.5605C40.5196 53.9907 39.9991 54.2056 39.3885 54.2056H36.9832V46.918H38.972C39.5616 46.918 40.0647 47.1259 40.4816 47.5424C40.898 47.9588 41.106 48.4623 41.106 49.052C41.106 49.4895 40.9809 49.8885 40.7313 50.2491C41.3071 50.6866 41.5953 51.2698 41.5953 51.9982C41.5953 52.6094 41.38 53.1299 40.9498 53.5605ZM34.6229 54.2106L33.9879 52.8573H30.9683L30.282 54.2106H28.6469L32.3643 46.9124H32.7908L36.2369 54.2106H34.6229ZM27.0238 43.3793L26.3883 42.0259H23.3692L22.682 43.3793H21.0478L24.7642 36.0811H25.1907L28.6373 43.3793H27.0238ZM26.5716 54.1428L24.6772 49.9994L22.7713 54.1428H21.1577L24.4582 46.8446H24.8952L28.1856 54.1428H26.5716ZM18.6302 54.1377H17.1733V46.8501H21.3479V48.2974H18.6302V54.1377ZM14.102 43.3687L12.2378 40.0372L11.6761 40.6098V43.3687H10.2183V36.0811H11.6761V38.4337L13.8101 36.0811H15.7778L13.2269 38.9335L15.8401 43.3687H14.102ZM17.1733 36.0811H19.5364C20.1398 36.0811 20.6552 36.296 21.0817 36.7262C21.5091 37.1569 21.7226 37.6741 21.7226 38.2779C21.7226 38.8813 21.5091 39.3967 21.0817 39.8237C20.6552 40.2507 20.1402 40.4642 19.5364 40.4642H18.6302V43.3793H17.1733V36.0811ZM17.2077 26.6778H19.0411C19.9748 26.6778 20.7051 27.4077 20.7051 28.3065C20.7051 29.2127 19.9748 29.943 19.0411 29.943H18.1766V31.5932H17.2077V26.6778ZM22.9266 26.6778H24.1269L25.7987 31.5932H24.7454L24.4646 30.7085H22.5826L22.3013 31.5932H21.2549L22.9266 26.6778ZM26.2793 32.6048V30.6875H26.7425C26.988 30.3645 27.1635 29.8871 27.1635 29.0024V26.6778H30.2468V30.6875H30.7732V32.6048H29.8115V31.5932H27.2482V32.6048H26.2793ZM30.7411 41.0368C30.9908 41.4047 31.2977 41.6681 31.6624 41.828C32.0266 41.9879 32.4238 42.0502 32.854 42.0154C33.2847 41.9806 33.6663 41.8349 33.9994 41.5779L34.9367 42.6504C34.2284 43.2336 33.423 43.525 32.5214 43.525C31.4801 43.525 30.5899 43.1557 29.8509 42.4163C29.1115 41.6773 28.7422 40.7867 28.7422 39.7458C28.7422 38.7044 29.1115 37.8143 29.8509 37.0753C30.5899 36.3359 31.4801 35.9666 32.5214 35.9666C33.3887 35.9666 34.1657 36.2337 34.8529 36.7679L33.9164 37.8509C33.5692 37.6287 33.1857 37.5092 32.7661 37.4917C32.346 37.4743 31.9607 37.549 31.6102 37.7158C31.2597 37.8821 30.9647 38.1441 30.726 38.5015C30.4859 38.8593 30.3663 39.2735 30.3663 39.7458C30.3663 40.2388 30.4905 40.6689 30.7411 41.0368ZM31.7801 26.6778H32.7496V29.7112L34.66 26.6778H35.3967V31.5932H34.4351V28.5525L32.5178 31.5932H31.7797L31.7801 26.6778ZM35.9098 36.0912H37.3676V38.8813H40.0642V36.0912H41.5215V43.3793H40.0642V40.3391H37.3676V43.3793H35.9098V36.0912ZM38.9885 26.5793C40.4069 26.5793 41.5445 27.6954 41.5445 29.1357C41.5445 30.5683 40.4069 31.6917 38.9885 31.6917C37.5696 31.6917 36.439 30.5683 36.439 29.1357C36.439 27.6954 37.5696 26.5793 38.9885 26.5793ZM88.4995 66.2935L84.8551 52.7079L81.3223 22.6009L5.29974 16L0 64.7647L73.961 60.8444L88.4995 66.2935Z" fill="white"/>
<path d="M38.9754 30.7601C39.867 30.7601 40.5624 30.093 40.5624 29.152C40.5624 28.2041 39.867 27.5366 38.9754 27.5366C38.0834 27.5366 37.3884 28.2041 37.3884 29.152C37.3884 30.093 38.0834 30.7601 38.9754 30.7601Z" fill="white"/>
<path d="M19.7351 28.3068C19.7351 27.9 19.4332 27.5839 19.0401 27.5839H18.1765V29.0376H19.0401C19.4332 29.0376 19.7351 28.7146 19.7351 28.3068Z" fill="white"/>
<path d="M20.0691 38.7747C20.2115 38.6322 20.2826 38.4604 20.2826 38.2593C20.2826 38.0582 20.2115 37.8846 20.0691 37.7389C19.9261 37.5927 19.7548 37.5199 19.5537 37.5199H18.6475V38.9882H19.5537C19.7548 38.9882 19.9261 38.9172 20.0691 38.7747Z" fill="white"/>
<path d="M51.3267 69.3037L51.9575 69.7902L52.6782 68.9252V73.3591H53.6517V67.1857H53.0928L51.3267 69.3037Z" fill="white"/>
<path d="M58.3425 72.4809C57.1262 72.4809 56.1709 71.5532 56.1709 70.2461C56.1709 68.9482 57.1262 68.0113 58.3425 68.0113C59.5589 68.0113 60.5237 68.9482 60.5237 70.2461C60.5237 71.5532 59.5589 72.4809 58.3425 72.4809ZM58.3425 67.0918C56.5943 67.0918 55.1882 68.5065 55.1882 70.2461C55.1882 71.9944 56.5943 73.4004 58.3425 73.4004C60.0821 73.4004 61.4968 71.9944 61.4968 70.2461C61.4968 68.5065 60.0821 67.0918 58.3425 67.0918Z" fill="white"/>
<path d="M65.6116 71.3198C66.6745 70.4548 67.2334 69.8153 67.2334 68.9411C67.2334 67.9763 66.4408 67.1567 65.125 67.1384H65.0439C64.2055 67.1384 63.4125 67.5081 62.7546 68.247L63.3859 68.8325C63.9174 68.2832 64.431 68.0578 64.9624 68.0578H65.0343C65.7014 68.0665 66.2694 68.4454 66.2694 69.1303C66.2694 69.6439 65.9176 70.0132 65.3142 70.5272L62.6282 72.816V73.3837H67.3594V72.4738H64.2958L65.6116 71.3198Z" fill="white"/>
<path d="M68.9315 72.4127C68.6163 72.4127 68.373 72.6289 68.373 72.9176C68.373 73.1966 68.6163 73.4133 68.9315 73.4133C69.238 73.4133 69.4813 73.1966 69.4813 72.9176C69.4813 72.6289 69.238 72.4127 68.9315 72.4127Z" fill="white"/>
<path d="M72.6893 72.4992C71.9324 72.4992 71.3822 72.0933 71.3822 71.4084C71.3822 70.5705 72.1757 70.3276 72.6893 70.3276C73.464 70.3363 73.9964 70.7331 73.9964 71.4084C73.9964 72.0933 73.4461 72.4992 72.6893 72.4992ZM71.5989 68.8492C71.5989 68.2275 72.1038 67.9481 72.6893 67.9481C73.2661 67.9481 73.7797 68.2275 73.7797 68.8492C73.7797 69.4714 73.2661 69.7504 72.6893 69.7504C72.1038 69.7504 71.5989 69.4714 71.5989 68.8492ZM73.7439 70.0477C74.2483 69.8406 74.69 69.4169 74.69 68.6783C74.69 67.8399 73.978 67.0918 72.7346 67.0918H72.6439C71.4005 67.0918 70.6615 67.8312 70.6615 68.6783C70.6615 69.4169 71.1124 69.8406 71.6081 70.0477C70.9232 70.2644 70.4453 70.8137 70.4453 71.571C70.4453 72.6431 71.2741 73.4004 72.6622 73.4004H72.7163C74.0949 73.3912 74.9149 72.6431 74.9149 71.571C74.9149 70.8137 74.4375 70.2644 73.7439 70.0477Z" fill="white"/>
<path d="M38.2366 73.3531H39.2097V70.6318H42.1207V69.7128H39.2097V67.9641H42.3369V67.0446H38.2366V73.3527V73.3531Z" fill="white"/>
<path d="M46.7989 70.2438L44.2668 67.0446H43.6987V73.3527H44.6723V68.8648L46.7989 71.5325L48.9169 68.8648V73.3527H49.89V67.0446H49.3311L46.7989 70.2438Z" fill="white"/>
</svg>