<svg xmlns="http://www.w3.org/2000/svg" width="90" height="90" viewBox="0 0 90 90" fill="none">
<path fill-rule="evenodd" clip-rule="evenodd" d="M25.185 61.8587V55.6147C25.185 55.4897 25.31 55.4897 25.31 55.4897H27.267C29.765 55.4897 30.014 57.0717 30.014 57.6957C30.014 58.8617 29.223 59.9017 27.516 59.9017H26.975V61.8587C26.975 61.9837 26.85 61.9837 26.85 61.9837H25.435C25.185 62.0257 25.185 61.8587 25.185 61.8587ZM26.892 58.2377H27.433C27.683 58.2377 28.224 58.1127 28.224 57.5717C28.224 57.1967 27.974 56.9057 27.433 56.9057H26.933C26.892 56.9057 26.892 58.2377 26.892 58.2377ZM36.674 61.8587L36.3 60.6937H33.802L33.427 61.8597L33.302 61.9847H31.887C31.762 61.9847 31.762 61.8597 31.762 61.7347L34.385 55.4907L34.51 55.3657H35.8C35.8 55.3657 35.925 55.3657 35.925 55.4907L38.548 61.7347C38.548 61.8597 38.548 61.9847 38.423 61.9847H37.008C36.799 62.0257 36.674 62.0257 36.674 61.8587ZM35.592 59.1537L34.968 57.3217L34.302 59.1537H35.592ZM45.791 62.9417V62.0257H42.128V62.9417C42.128 63.0667 42.003 63.0667 42.003 63.0667H40.713C40.588 63.0667 40.588 62.9417 40.588 62.9417V60.6107C40.588 60.4857 40.713 60.4857 40.713 60.4857H41.213C41.463 60.1107 42.004 58.7787 42.129 56.8227V55.6567C42.129 55.5317 42.254 55.5317 42.254 55.5317H46.417C46.542 55.5317 46.542 55.6567 46.542 55.6567V60.4857H47.208C47.333 60.4857 47.333 60.6107 47.333 60.6107V62.9417C47.333 63.0667 47.208 63.0667 47.208 63.0667H45.918C45.916 63.0667 45.791 63.0667 45.791 62.9417ZM44.875 60.4437V57.0717H43.834L43.709 57.9877C43.584 58.9037 43.334 59.9447 43.168 60.4857L44.875 60.4437ZM53.992 61.8587V58.3207L51.369 61.9837L51.244 62.1087H50.078C49.953 62.1087 49.953 61.9837 49.953 61.9837V55.7397C49.953 55.6147 50.078 55.6147 50.078 55.6147H51.493C51.618 55.6147 51.618 55.7397 51.618 55.7397V59.2777L54.241 55.6147L54.366 55.4897H55.532C55.657 55.4897 55.657 55.6147 55.657 55.6147V61.8587C55.657 61.9837 55.532 61.9837 55.532 61.9837H54.242C54.117 62.0257 53.992 61.8587 53.992 61.8587ZM61.318 62.1507C59.237 62.1507 57.78 60.7357 57.78 58.7787C57.78 56.8217 59.195 55.4067 61.318 55.4067C63.399 55.4067 64.856 56.8217 64.856 58.7787C64.857 60.7347 63.4 62.1507 61.318 62.1507ZM61.318 56.9057C60.277 56.9057 59.611 57.6967 59.611 58.7377C59.611 59.7787 60.402 60.5697 61.318 60.5697C62.608 60.5697 63.025 59.6537 63.025 58.7377C63.15 57.6967 62.359 56.9057 61.318 56.9057ZM19.44 29.1597V27.3097H12.9V34.4697H6.54V27.3097H0V48.4597H6.54V40.0897H12.91V48.4597H19.44V46.7497C19.33 46.6397 19.22 46.5297 19.11 46.4097C16.79 44.0997 15.57 41.1897 15.57 38.0097C15.57 34.5597 16.77 31.6797 19.11 29.4697C19.22 29.3597 19.33 29.2597 19.44 29.1597ZM16.57 38.0097C16.57 40.8097 17.59 43.2997 19.44 45.3097V30.5597C17.49 32.5697 16.57 35.0697 16.57 38.0097Z" fill="white"/>
<path fill-rule="evenodd" clip-rule="evenodd" d="M90 30.0597C87.92 27.9797 85.17 26.9297 82.05 26.9297C78.8 26.9297 76.05 27.9797 73.97 30.1797C73.62 30.5297 73.3 30.8997 73 31.2797C74.29 33.1897 74.93 35.3997 74.93 37.8797C74.93 40.3297 74.29 42.5597 73 44.5297C73.29 44.8897 73.61 45.2397 73.97 45.5797C76.05 47.6597 78.8 48.8297 82.05 48.8297C85.17 48.8297 87.92 47.7897 90 45.8297L82.17 38.0097L90 30.0597ZM80.63 33.8397C79.72 33.8397 78.93 33.0497 78.93 32.1397C78.93 31.2197 79.72 30.4297 80.63 30.4297C81.55 30.4297 82.34 31.2197 82.34 32.1397C82.34 33.0497 81.55 33.8397 80.63 33.8397ZM72.38 32.1597C71.31 33.8397 70.73 35.7697 70.73 37.8797C70.73 40.0197 71.26 41.9697 72.37 43.6697C73.41 41.9397 73.93 39.9997 73.93 37.8797C73.93 35.7697 73.41 33.8397 72.38 32.1597Z" fill="white"/>
<path fill-rule="evenodd" clip-rule="evenodd" d="M55.41 42.4197C55.41 43.6097 55.07 44.6297 54.49 45.5297C54.39 45.6697 54.29 45.7997 54.19 45.9397C52.05 43.7497 50.91 41.0097 50.91 38.0097C51.02 35.1397 51.89 32.6997 53.51 30.7197C53.59 30.8997 53.65 31.0897 53.69 31.2897C53.81 31.7397 53.87 32.2297 53.87 32.7597C53.87 33.7997 53.62 34.5897 53.08 35.3797C52.58 35.9897 52.02 36.4597 51.52 36.7197C51.52 36.7497 51.51 36.7897 51.5 36.8297C52.37 36.9797 53.24 37.6397 54.12 38.6297C55.03 39.6697 55.41 40.8397 55.41 42.4197Z" fill="white"/>
<path fill-rule="evenodd" clip-rule="evenodd" d="M73.93 37.8797C73.93 39.9997 73.41 41.9397 72.37 43.6697C71.94 44.3797 71.42 45.0597 70.81 45.7097C68.73 47.7897 65.98 48.9497 62.73 48.9497C59.76 48.9497 57.2 48.0797 55.2 46.2297C56.01 45.0797 56.41 43.8197 56.41 42.4197C56.41 40.5497 55.93 39.1797 54.87 37.9697C54.35 37.3897 53.85 36.9197 53.35 36.5697C53.52 36.3997 53.69 36.2097 53.85 36.0097L53.88 35.9797L53.9 35.9497C54.57 34.9697 54.87 33.9897 54.87 32.7597C54.87 31.8897 54.73 31.0997 54.45 30.3997C54.52 30.3197 54.59 30.2497 54.66 30.1797C56.74 28.0997 59.49 26.9297 62.73 26.9297C65.98 26.9297 68.73 27.9697 70.81 30.1797C71.42 30.7897 71.95 31.4597 72.38 32.1597C73.41 33.8397 73.93 35.7697 73.93 37.8797Z" fill="white"/>
<path fill-rule="evenodd" clip-rule="evenodd" d="M36.38 30.6197C36.25 30.4697 36.11 30.3197 35.97 30.1797L35.88 30.0897V45.7997L35.97 45.7097C36.11 45.5597 36.25 45.4097 36.38 45.2497C38.19 43.1397 39.09 40.6797 39.09 37.8797C39.09 35.0897 38.19 32.6197 36.38 30.6197ZM54.12 38.6297C53.24 37.6397 52.37 36.9797 51.5 36.8297C51.51 36.7897 51.52 36.7497 51.52 36.7197C52.02 36.4597 52.58 35.9897 53.08 35.3797C53.62 34.5897 53.87 33.7997 53.87 32.7597C53.87 32.2297 53.81 31.7397 53.69 31.2897C53.65 31.0897 53.59 30.8997 53.51 30.7197C53.45 30.5497 53.37 30.3797 53.27 30.2197C52.95 29.6297 52.5 29.1397 51.91 28.7197C50.62 27.6797 49.04 27.3097 47.08 27.3097H36.38V29.1697C36.48 29.2697 36.57 29.3697 36.67 29.4697C38.94 31.7397 40.09 34.5697 40.09 37.8797C40.09 41.1397 38.95 44.0097 36.67 46.4097C36.58 46.5097 36.48 46.5997 36.38 46.6897V48.4597H47.46C49.79 48.4597 51.62 47.9097 53.33 46.8697C53.52 46.6897 53.7 46.5097 53.87 46.3197C53.98 46.1897 54.09 46.0697 54.19 45.9397C54.29 45.7997 54.39 45.6697 54.49 45.5297C55.07 44.6297 55.41 43.6097 55.41 42.4197C55.41 40.8397 55.03 39.6697 54.12 38.6297ZM42.79 32.5497H46.04C46.96 32.5497 47.62 33.0497 47.62 33.9697C47.62 34.5897 46.96 35.2597 46.04 35.2597H42.79V32.5497ZM46.17 43.2097H42.79V39.6697H46.17C47.33 39.6697 48.12 40.4597 48.12 41.4997C48.12 42.5397 47.33 43.2097 46.17 43.2097Z" fill="white"/>
<path fill-rule="evenodd" clip-rule="evenodd" d="M39.0903 37.8797C39.0903 40.6797 38.1903 43.1397 36.3803 45.2497C36.2503 45.4097 36.1103 45.5597 35.9703 45.7097L35.8803 45.7997C35.7203 45.9597 35.5503 46.1097 35.3803 46.2597C33.3803 47.9897 30.8403 48.9497 27.8903 48.9497C24.6403 48.9497 21.9003 47.9097 19.8203 45.7097C19.6903 45.5797 19.5603 45.4497 19.4403 45.3097C17.5903 43.2997 16.5703 40.8097 16.5703 38.0097C16.5703 35.0697 17.4903 32.5697 19.4403 30.5597C19.5603 30.4297 19.6903 30.2997 19.8203 30.1797C21.9003 28.0997 24.6403 26.9297 27.8903 26.9297C30.8403 26.9297 33.3803 27.7897 35.3803 29.6097C35.5503 29.7597 35.7203 29.9197 35.8803 30.0897L35.9703 30.1797C36.1103 30.3197 36.2503 30.4697 36.3803 30.6197C38.1903 32.6197 39.0903 35.0897 39.0903 37.8797ZM27.9334 41.1287L22.8134 44.9167L24.7704 38.9217L19.6914 35.2587H25.9774L27.9334 29.3887L29.7234 35.2587H36.0094L30.9314 38.9217L32.8874 44.9167L27.9334 41.1287Z" fill="white"/>
</svg>