<?xml version="1.0" encoding="utf-8"?>
<!-- Generator: Adobe Illustrator 23.1.0, SVG Export Plug-In . SVG Version: 6.00 Build 0)  -->
<svg version="1.1" id="Слой_1" xmlns="http://www.w3.org/2000/svg" xmlns:xlink="http://www.w3.org/1999/xlink" x="0px" y="0px"
	 viewBox="0 0 90 90" style="enable-background:new 0 0 90 90;" xml:space="preserve">
<style type="text/css">
	.st0{fill:none;}
	.st1{fill:#FF0000;}
	.st2{fill:#FFFFFF;}
</style>
<rect class="st0" width="90" height="90"/>
<g>
	<path d="M80.7,33.6c-0.9,0-1.6-0.7-1.6-1.6c0-0.9,0.7-1.6,1.6-1.6c0.9,0,1.6,0.7,1.6,1.6C82.3,32.9,81.6,33.6,80.7,33.6z M90,29.9
		c-2.1-2.1-4.8-3.1-8-3.1c-3.3,0-6,1.1-8.1,3.2c-2.1,2.1-3.2,4.7-3.2,7.8c0,3,1.1,5.6,3.2,7.8c2.1,2.1,4.9,3.2,8.1,3.2
		c3.2,0,5.8-1,7.9-3l-7.9-7.9L90,29.9z"/>
	<path class="st1" d="M54.7,30c2.1-2.1,4.9-3.2,8.1-3.2c3.3,0,5.9,1.1,8.1,3.2c2.1,2.1,3.2,4.7,3.2,7.8c0,3-1.1,5.6-3.2,7.8
		c-2.1,2.1-4.8,3.2-8.1,3.2c-3.3,0-6-1.1-8.1-3.2c-2.1-2.1-3.2-4.7-3.2-7.8C51.5,34.7,52.6,32.1,54.7,30z"/>
	<path d="M42.9,43.1h3.4c1.2,0,1.9-0.7,1.9-1.7c0-1.1-0.8-1.8-1.9-1.8h-3.4V43.1z M42.9,35.1h3.3c0.9,0,1.5-0.6,1.5-1.4
		c0-0.9-0.7-1.5-1.5-1.5h-3.3V35.1z M36.4,48.3V27.2h10.7c2,0,3.6,0.5,4.8,1.4c1.3,0.9,1.9,2.2,1.9,4c0,1-0.3,1.9-0.8,2.6
		c-0.6,0.7-1.1,1.2-1.7,1.4c0.9,0.2,1.8,0.8,2.7,1.8c0.9,1,1.3,2.3,1.3,3.8c0,1.8-0.7,3.3-2.1,4.4c-1.4,1.1-3.3,1.7-5.6,1.7H36.4z"
		/>
	<path class="st1" d="M19.8,30c2.1-2.1,4.9-3.2,8.1-3.2c3.3,0,5.9,1.1,8.1,3.2c2.1,2.1,3.2,4.7,3.2,7.8c0,3-1.1,5.6-3.2,7.8
		c-2.1,2.1-4.8,3.2-8.1,3.2c-3.3,0-6-1.1-8.1-3.2c-2.1-2.1-3.2-4.7-3.2-7.8C16.6,34.7,17.6,32.1,19.8,30z"/>
	<path class="st2" d="M27.9,41l-5,3.7l1.9-5.9l-5.1-3.7l6.2,0l1.9-5.9l1.9,5.9l6.2,0L31,38.8l1.9,5.9L27.9,41z"/>
	<path d="M0,48.3V27.2h6.5v7.2h6.5v-7.2h6.5v21.1h-6.5V40H6.5v8.3H0z"/>
	<path d="M26.8,58.1c0.2,0,0.4,0,0.5,0c0.3,0,0.7-0.1,0.7-0.7c0-0.4-0.2-0.6-0.8-0.6c-0.1,0-0.2,0-0.4,0l-0.1,0V58.1z M25.1,61.7
		v-6.3c0-0.1,0.1-0.2,0.2-0.2c0.2,0,0.6,0,0.8,0c0.4,0,0.8,0,1.1,0c2.4,0,2.7,1.6,2.7,2.2c0,1.1-0.8,2.3-2.5,2.3c-0.1,0-0.4,0-0.6,0
		v2c0,0.1-0.1,0.2-0.2,0.2h-1.4C25.2,61.8,25.1,61.8,25.1,61.7z"/>
	<path d="M35.7,58.9L35,57.1l-0.6,1.8H35.7z M36.7,61.7l-0.4-1.2h-2.4l-0.4,1.2c0,0.1-0.1,0.1-0.2,0.1h-1.4c-0.1,0-0.2-0.1-0.1-0.2
		l2.6-6.3c0-0.1,0.1-0.1,0.1-0.1h1.2c0.1,0,0.1,0,0.1,0.1l2.6,6.3c0,0.1,0,0.2-0.1,0.2h-1.5C36.8,61.8,36.7,61.8,36.7,61.7z"/>
	<path d="M44.9,60.2v-3.4h-1l-0.1,1c-0.1,0.9-0.4,1.9-0.6,2.4H44.9z M45.8,62.8v-0.9h-3.7v0.9c0,0.1-0.1,0.2-0.2,0.2h-1.3
		c-0.1,0-0.2-0.1-0.2-0.2v-2.4c0-0.1,0.1-0.2,0.2-0.2h0.6c0.3-0.4,0.8-1.7,0.9-3.6l0.1-1.2c0-0.1,0.1-0.2,0.2-0.2h4.1
		c0.1,0,0.2,0.1,0.2,0.2v4.8h0.7c0.1,0,0.2,0.1,0.2,0.2v2.4c0,0.1-0.1,0.2-0.2,0.2H46C45.9,62.9,45.8,62.9,45.8,62.8z"/>
	<path d="M54.1,61.7v-3.5l-2.6,3.6c0,0-0.1,0.1-0.1,0.1h-1.2c-0.1,0-0.2-0.1-0.2-0.2v-6.3c0-0.1,0.1-0.2,0.2-0.2h1.4
		c0.1,0,0.2,0.1,0.2,0.2v3.5l2.6-3.6c0,0,0.1-0.1,0.1-0.1h1.2c0.1,0,0.2,0.1,0.2,0.2v6.3c0,0.1-0.1,0.2-0.2,0.2h-1.4
		C54.2,61.8,54.1,61.8,54.1,61.7z"/>
	<path d="M61.4,56.8c-1,0-1.7,0.7-1.7,1.8c0,1,0.7,1.8,1.7,1.8c1.3,0,1.7-0.9,1.7-1.8C63.1,57.5,62.4,56.8,61.4,56.8z M61.4,61.9
		c-2.1,0-3.5-1.4-3.5-3.4c0-2,1.5-3.4,3.5-3.4c2.1,0,3.5,1.4,3.5,3.4C64.9,60.5,63.4,61.9,61.4,61.9z"/>
</g>
</svg>
