<?xml version="1.0" encoding="utf-8"?>
<!-- Generator: Adobe Illustrator 23.1.0, SVG Export Plug-In . SVG Version: 6.00 Build 0)  -->
<svg version="1.1" id="Слой_1" xmlns="http://www.w3.org/2000/svg" xmlns:xlink="http://www.w3.org/1999/xlink" x="0px" y="0px"
	 viewBox="0 0 90 90" style="enable-background:new 0 0 90 90;" xml:space="preserve">
<style type="text/css">
	.st0{fill-rule:evenodd;clip-rule:evenodd;}
	.st1{fill:#FF0000;}
	.st2{opacity:0.5;}
	.st3{fill:#FFFFFF;}
</style>
<path class="st0" d="M14.2,34.2l1.3-0.5v-1.7l1.1-0.4c1.1-0.4,1.8-1.1,1.8-2.4c0-1.2-0.9-1.3-1.8-1l-2.4,0.8L14.2,34.2L14.2,34.2z
	 M15.5,29.8l0.9-0.3c0.4-0.1,0.7-0.1,0.7,0.4c0,0.5-0.3,0.7-0.7,0.9l-0.9,0.3V29.8z"/>
<path class="st0" d="M26.4,26.5L26.4,26.5l0.6,1.6l-1.1,0.4L26.4,26.5z M23.9,31l1.3-0.5l0.3-1l1.8-0.6l0.3,0.8l1.4-0.5l-1.9-4.4
	l-1.3,0.5L23.9,31z"/>
<path class="st0" d="M37.8,25.1l-1.6,0.6c0.5-1.1,0.5-1.9,0.5-2.8v-0.2l1.1-0.4V25.1z M39.7,26.8v-2.4l-0.6,0.2v-3.9L35.5,22v0.9
	c0,1.1-0.2,2.1-0.7,3.2l-0.5,0.2v2.3l1.2-0.4V27l2.9-1v1.2L39.7,26.8z"/>
<path class="st0" d="M49.4,17.2l-1.4,0.5l-1.6,3.9v-3.3L45,18.7v5l1.5-0.5l1.6-3.8v3.2l1.3-0.4V17.2z"/>
<path class="st0" d="M54.8,17.8c0,1.5,0.9,2.3,2.5,1.8c1.6-0.5,2.5-2,2.5-3.5c0-1.5-0.9-2.3-2.5-1.8C55.7,14.8,54.8,16.3,54.8,17.8z
	 M56.1,17.3c0-0.8,0.3-1.6,1.2-1.9c0.8-0.3,1.2,0.3,1.2,1.1c0,0.8-0.3,1.6-1.2,1.9C56.4,18.7,56.1,18.1,56.1,17.3z"/>
<path class="st1" d="M60.3,22.1V28l4-1.4c0,0,0,15.4,0,16.2c-0.4,4.7-5.3,3.2-6.9,2c-0.5-0.4-4.2-2.9-4.2-2.9
	c3.6-1.3,9.1-5.8,6.4-12c-3.4-6.3-9.5-4.3-9.5-4.3l-16.7,5.8v5.7l2.4-0.8v8L25.1,34.2L14,38.1l0,5.8l3.3-1.2V59L14,60.2v6l12.6-4.4
	V48.3l6.9,6.3l17.8-4.7c0,0,2.4,1.9,4.1,3.1c3,2.2,6.6,2.7,10.7,1.6c4.5-1.2,8.4-5.2,8.4-11c0-2.1,0-26.4,0-26.4L60.3,22.1z
	 M49.6,37.2c-1.2,0.4-4.7,1.7-4.7,1.7v-5.5c0,0,2.4-0.9,3.6-1.3c1.2-0.4,2.2,0.8,2.3,1.9C50.8,35,51,36.5,49.6,37.2z M68.4,17.1
	c3.3,0,6-2.7,6-6c0-3.3-2.7-6-6-6c-3.3,0-6,2.7-6,6C62.4,14.4,65.1,17.1,68.4,17.1z"/>
<path class="st2" d="M23.1,63.1l-3.9-3.9l0.4-1.6l7.1-0.3v4.6L23.1,63.1z"/>
<path d="M74.5,43.2c-0.3,4.6-3.2,8.4-9.4,8.8c-2.9,0.2-4.6-0.8-6-1.6c-2.7-1.3-7-5.2-9.7-6.3c-2-0.8-4.6-1.1-7.4-0.5
	c-2.7,0.6-4.2,1.6-5.3,2.4c-1.1,0.8-2.9,2.6-3.3,3c-0.4,0.5-1.6,1.9-1.7,1.9c-0.1,0-0.4-0.4-0.6-0.6c-0.2-0.2-0.4-0.6-0.5-0.6
	c-0.1,0-0.8,1-0.8,1.5c-0.1,0.5,0.2,1.3,0.2,1.4c0,0.2-0.2,0.3-0.3,0.3c-0.1,0-0.6-0.7-0.7-0.6c-0.1,0-0.3,0.4-0.4,0.7
	c-0.1,0.3,0,1,0,1c-0.6,0.5-1.8,1.1-3,1.5c-0.8,0.2-4.6,0.6-4.7,0.6c-0.1,0.1-1.9,1.6-1.9,1.6l0.1,1.4l0.4-0.3l0.6,1.1l0.4-0.7
	c0,0,0.5,0.7,0.8,1.1c0.1-0.6,0.8-1.8,1.8-2.2c0.9-0.3,5.7-0.5,5.9-0.5c0,0.1-0.3,0.8-0.3,0.9c0,0,1,1.1,1.1,1.2
	c0.1,0,0.6-0.2,0.6-0.2c0,0,0.1-0.1,0.1-0.3c0,0,0.4,0,0.6-0.1c-0.5-0.2-0.5-0.4-0.4-0.7c0.1-0.3,0.9-0.4,1.3-0.1
	c0.4,0.3,0.6,0.7,0.4,1.2c-0.2,0.4-0.7,0.2-0.8,0.2c0,0.1,0.4,0.3,0.4,0.4c0,0,0,0.1,0,0.1s0.1,0.2,0.2,0.2c0.1,0,1.7-0.9,1.8-0.9
	c0.1-0.1,0.4-0.4,0.7-0.8c0,0-0.5-0.4-0.5-1c0-0.6,0.6-1,1.2-0.9c0.6,0.1,1,0.6,0.8,1.4c-0.1,0.6-3.1,4-5.7,5.3
	c-1.7,1-3.3,0.9-3.4,0.9c-0.1,0-1.7,1.4-1.7,1.4l-0.1,1.2l0.3-0.1l0.5,1.3l0.3-0.5l1,1l0.2-0.9l1.2,0.9c0,0,0.1-0.5,0.1-0.8
	c0.2-0.1,1.9-1.7,2.1-1.9c0.2-0.2,2.8-1.5,5.1-3c2.6-1.8,5.2-3.6,5.2-4.1c-0.3-0.3-1.6-1.5-1.6-2.8c0-1.3,1.5-2.6,3.3-3.3
	c1.8-0.8,4-0.5,5.6,0.6c1,0.7,5.5,3.8,11.5,3.5c6.3-0.3,10-2.4,12.2-6.2C74.7,46.7,74.5,43.9,74.5,43.2z"/>
<path class="st3" d="M29.9,56.4l0.4-1.9l0.6,0.2l-0.8,1.5L29.9,56.4z"/>
<path d="M74.5,72.7H14V85h60.5V72.7z"/>
<path class="st3" d="M22.9,76.3H20l-0.3,1.6h2.7L22,79.6h-2.7l-0.4,1.8h3l-0.4,1.8h-5.3l1.9-8.8h5.2L22.9,76.3z"/>
<path class="st3" d="M31.5,83.2H29L28.7,80c0-0.4-0.1-0.9-0.1-1.3c0-0.4-0.1-0.9-0.1-1.3c0,0.5-0.1,1-0.2,1.5
	c-0.1,0.5-0.2,1-0.3,1.5l-0.6,2.8h-2.1l1.9-8.8h2.5l0.3,3.3c0,0.4,0.1,0.9,0.1,1.3c0,0.4,0,0.9,0,1.3c0.1-0.7,0.1-1.2,0.2-1.6
	c0.1-0.4,0.1-0.8,0.2-1l0.6-3.3h2.2L31.5,83.2z"/>
<path class="st3" d="M42.2,76.3h-2.9L39,77.9h2.7l-0.4,1.8h-2.7l-0.4,1.8h3l-0.4,1.8h-5.3l1.9-8.8h5.2L42.2,76.3z"/>
<path class="st3" d="M52,76.4c0,0.8-0.2,1.4-0.6,1.8c-0.4,0.4-0.9,0.7-1.6,0.7c0.2,0,0.4,0.1,0.5,0.2c0.2,0.1,0.3,0.2,0.4,0.3
	c0.1,0.1,0.2,0.2,0.3,0.4c0.1,0.2,0.1,0.3,0.1,0.6c0,0.3,0,0.5-0.1,0.8c0,0.3-0.1,0.5-0.1,0.8c0,0.3-0.1,0.5-0.1,0.6
	c0,0.1,0,0.3,0,0.4c0,0.2,0.1,0.3,0.2,0.4v0.1h-2.4c0-0.1-0.1-0.2-0.1-0.3c0-0.1,0-0.1,0-0.2c0-0.1,0-0.2,0-0.4
	c0-0.1,0.1-0.3,0.1-0.5c0.1-0.3,0.1-0.6,0.1-0.8c0-0.2,0.1-0.4,0.1-0.6c0-0.3-0.1-0.5-0.2-0.6c-0.1-0.1-0.3-0.2-0.6-0.2h-0.3
	l-0.8,3.6h-2.3l1.9-8.8h2.6c0.4,0,0.7,0,1.1,0c0.3,0,0.6,0.1,0.9,0.2c0.3,0.1,0.5,0.3,0.6,0.6C51.9,75.6,52,75.9,52,76.4z
	 M49.7,76.8c0-0.3-0.1-0.5-0.2-0.6c-0.1-0.1-0.4-0.2-0.8-0.2h-0.2L48,78.2h0.3c0.2,0,0.4,0,0.5,0c0.1,0,0.2-0.1,0.3-0.1
	c0.2-0.1,0.3-0.2,0.4-0.5C49.6,77.3,49.7,77.1,49.7,76.8z"/>
<path class="st3" d="M61.8,76.4c0,0.1,0,0.2,0,0.2c0,0.1,0,0.1,0,0.2c0,0.1,0,0.1,0,0.2c0,0.1,0,0.1,0,0.2h-2.2
	c0-0.2,0.1-0.3,0.1-0.5c0-0.1,0-0.2,0-0.3c0-0.4-0.2-0.6-0.5-0.6c-0.1,0-0.3,0-0.4,0.1c-0.1,0.1-0.2,0.2-0.3,0.4
	c-0.1,0.2-0.2,0.4-0.2,0.6c-0.1,0.3-0.1,0.6-0.2,0.9c0,0.2-0.1,0.3-0.1,0.4c0,0.1-0.1,0.3-0.1,0.4c0,0.1-0.1,0.3-0.1,0.4
	c0,0.2-0.1,0.4-0.1,0.6c-0.1,0.5-0.2,0.8-0.2,1c0,0.2-0.1,0.4-0.1,0.5c0,0.4,0.2,0.7,0.6,0.7c0.2,0,0.3,0,0.4-0.1
	c0.1-0.1,0.2-0.2,0.3-0.4c0.1-0.1,0.1-0.3,0.2-0.5c0-0.2,0.1-0.3,0.1-0.4c0-0.1,0-0.2,0.1-0.3c0-0.1,0-0.2,0.1-0.3h-0.8l0.3-1.5h3
	l-1,4.7h-1.6v-0.3c0-0.1,0-0.1,0-0.2c0,0,0-0.1,0-0.2c-0.2,0.3-0.5,0.6-0.8,0.7c-0.3,0.1-0.7,0.2-1,0.2c-1.4,0-2.1-0.7-2.1-2.1
	c0-0.3,0-0.7,0.1-1c0.1-0.3,0.1-0.6,0.2-1c0.1-0.5,0.2-0.9,0.3-1.3c0.1-0.4,0.2-0.7,0.3-1.1c0.1-0.5,0.3-0.9,0.4-1.2
	c0.2-0.3,0.4-0.6,0.6-0.9c0.2-0.2,0.5-0.4,0.9-0.5c0.4-0.1,0.8-0.2,1.3-0.2c0.3,0,0.7,0,1,0.1c0.3,0.1,0.6,0.2,0.9,0.3
	c0.2,0.2,0.4,0.4,0.6,0.6C61.7,75.6,61.8,76,61.8,76.4z"/>
<path class="st3" d="M69,79.8l-0.7,3.4H66l0.7-3.4l-1.2-5.4h2.5l0.2,1.7c0,0.3,0,0.6,0.1,0.8c0,0.3,0,0.6,0,0.8
	c0.1-0.3,0.2-0.6,0.3-0.9c0.1-0.3,0.2-0.6,0.4-0.8l0.8-1.6h2.5L69,79.8z"/>
</svg>
