<?xml version="1.0" encoding="utf-8"?>
<!-- Generator: Adobe Illustrator 23.1.0, SVG Export Plug-In . SVG Version: 6.00 Build 0)  -->
<svg version="1.1" id="Слой_1" xmlns="http://www.w3.org/2000/svg" xmlns:xlink="http://www.w3.org/1999/xlink" x="0px" y="0px"
	 viewBox="0 0 90 90" style="enable-background:new 0 0 90 90;" xml:space="preserve">
<style type="text/css">
	.st0{clip-path:url(#SVGID_2_);}
</style>
<g>
	<defs>
		<rect id="SVGID_1_" width="90" height="90"/>
	</defs>
	<clipPath id="SVGID_2_">
		<use xlink:href="#SVGID_1_"  style="overflow:visible;"/>
	</clipPath>
	<g class="st0">
		<path d="M43.1,34.4L43.1,34.4c0.5,0,1,0.2,1.3,0.4c0.3,0.3,0.5,0.7,0.5,1.1c0,0.5-0.3,1.2-0.7,1.7c-0.3,0.4-0.7,0.7-1.1,0.7h0
			c0,0,0,0,0,0h0c-0.4,0-0.8-0.3-1.1-0.7c-0.4-0.5-0.6-1.2-0.7-1.7v0c0,0,0,0,0-0.1c0,0,0,0,0-0.1C41.4,35.1,42.1,34.4,43.1,34.4z
			 M40.1,41h6.3c4.7-6.5,17.5-10.8,24.5-13.8l-3.2,0.9l-0.2,0.1l-9,2.7l-1.8,0.5l-10,3l-2-1.8l-1.6,0l-1.5,0l-2,1.8L25.2,30l-6.5-2
			l-3.1-0.9C22.8,30.3,36.2,35.5,40.1,41z"/>
		<path d="M78.4,51.2h-3.7l1.6-5.2H80L78.4,51.2z M82,43.6h-9.4l-0.1,0.2l0,0.1l-2.8,9.2h0l0,0.1l-0.1,0.4h9.9
			c1.6,0,2.7-0.6,3.2-2.1l1.3-4.3c0.5-1.5,0.6-2.2,0.4-2.8C84.1,43.7,83,43.6,82,43.6z"/>
		<path d="M47.9,46h3.7l-1.6,5.2h-2.7v0h-1L47.9,46z M44.3,53.6h6.8c1.6,0,2.7-0.6,3.2-2.1l1.3-4.3c0.3-1.1,1-2.8-0.2-3.4
			c-0.5-0.2-1.2-0.3-1.8-0.3h-4v0h-2.8c-1.6,0-2.7,0.6-3.2,2.1L42.3,50c-0.3,1.1-1,2.8,0.2,3.4C43,53.6,43.7,53.6,44.3,53.6z"/>
		<path d="M20.8,46h8.1l0.1-0.2l0-0.1h0l0.5-1.6h0l0-0.1l0.1-0.4H17.1l-0.1,0.2l0,0.1h0l-2.8,9.2l0,0.1l-0.1,0.4h12.5l0.1-0.2l0-0.1
			h0l0.5-1.6l0-0.1l0.1-0.4h-8.1l0.4-1.3h6.4l0.1-0.2l0-0.1l0.5-1.7l0-0.1l0.1-0.4h-6.4L20.8,46z"/>
		<path d="M65.4,46.5l-0.2,0.8c-0.1,0.2-0.2,0.3-0.4,0.4L63.2,48L61,48.6l0.8-2.6H65C65.4,46,65.5,46.2,65.4,46.5z M69.5,47.4
			c0.1-0.3,0.2-0.7,0.3-1c0.7-2.1-0.1-2.8-1.9-2.8h-9.7c-1,3.2-1.9,6.4-2.9,9.5h0l0,0.1l-0.1,0.4h4.4l0.1-0.2l0-0.1h0l1-3.2H62
			l1.2,2.5l0.4,0.8v0l0,0.1l0.1,0.2h4.8c-0.6-1.3-1.3-2.5-1.9-3.8C68.6,49.6,69.1,48.8,69.5,47.4z"/>
		<path d="M8.1,48l-2.2,0.6L6.7,46h3.2c0.3,0,0.4,0.1,0.3,0.4L10,47.3c-0.1,0.2-0.2,0.3-0.4,0.4L8.1,48z M8.6,53.6h4.8
			c-0.6-1.3-1.3-2.5-1.9-3.8c2-0.3,2.5-1,2.8-2.4c0.1-0.3,0.2-0.7,0.3-1c0.7-2.1-0.1-2.8-1.9-2.8H3c-1,3.2-1.9,6.4-2.9,9.5h0l0,0.1
			L0,53.6h4.4l0.1-0.2l0-0.1h0l1-3.2h1.5l1.2,2.5l0.4,0.8v0l0,0.1L8.6,53.6z"/>
		<path d="M41.7,47.3l0.7-2.2c0.3-0.8-0.2-1.6-1.1-1.6h-5v0h-2.8c-1.6,0-2.7,0.6-3.2,2.1L29,50c-0.3,1.1-1,2.8,0.2,3.4
			c0.5,0.2,1.2,0.3,1.8,0.3h7.3c0.9,0,1.9-0.8,2.1-1.6L41,50h-3.4l-0.4,1.2H33l1.6-5.2h4.1l-0.4,1.3H41.7z"/>
		<path d="M87.7,41.8h-0.4v-0.6h0.4c0.2,0,0.3,0,0.3,0c0.1,0,0.1,0,0.2,0.1c0,0,0.1,0.1,0.1,0.2c0,0.1,0,0.1,0,0.2
			c0,0-0.1,0.1-0.1,0.1C88,41.8,87.9,41.8,87.7,41.8z M88.4,42.3c-0.1-0.1-0.2-0.1-0.3-0.2c0.2,0,0.4-0.1,0.5-0.2
			c0.1-0.1,0.2-0.3,0.2-0.4c0-0.1,0-0.3-0.1-0.4c-0.1-0.1-0.2-0.2-0.3-0.2c-0.1,0-0.3-0.1-0.6-0.1h-1v2.4h0.5v-1h0.1
			c0.1,0,0.2,0,0.2,0c0,0,0.1,0,0.1,0l0,0c0,0,0,0,0.1,0.1c0,0,0.1,0.2,0.3,0.3l0.3,0.5H89l-0.3-0.5C88.6,42.5,88.5,42.4,88.4,42.3z
			"/>
		<path d="M87.7,43.8L87.7,43.8c-1,0-1.8-0.8-1.8-1.8c0-1,0.8-1.8,1.8-1.8h0c1,0,1.8,0.8,1.8,1.8C89.5,43,88.7,43.8,87.7,43.8z
			 M87.7,39.7L87.7,39.7c-1.3,0-2.3,1-2.3,2.3c0,1.3,1,2.3,2.3,2.3h0c1.3,0,2.3-1,2.3-2.3C90,40.7,89,39.7,87.7,39.7z"/>
		<path d="M13.1,60.9h-2.2l0.9-2.9H14L13.1,60.9z M14.8,61.2l0.6-1.8l0.6-1.8l0-0.1l-0.1,0l-0.5-0.3L15,57l0,0h-4.6l0,0.1l-1.5,4.7
			l0,0.1h4.6l0,0L14.8,61.2L14.8,61.2L14.8,61.2z"/>
		<path d="M61.5,60.9h-2.2l0.9-2.9h2.2L61.5,60.9z M64.4,57.7L64.4,57.7L64.4,57.7l-0.3-0.3L63.4,57l0,0h-4.6l0,0.1l-1.5,4.7l0,0.1
			h4.6l0,0l1.3-0.6l0,0l0,0l0.8-2.6L64.4,57.7z"/>
		<path d="M67.1,57.1l0-0.1h-1.8l0,0.1l-1.2,3.8l-0.3,0.9l0,0.1h1.8l0-0.1l1.2-3.8L67.1,57.1z"/>
		<path d="M19.5,59.8h-1.1l0.6-0.7l0.4-0.4L19.5,59.8z M20.6,57.1L20.6,57.1L19,57l0,0l0,0.1l-3.6,4.1l-0.5,0.5l-0.1,0.1h1.9l0,0
			l0.9-1.1h2.2l0.3,1.1l0,0.1h1.8l0-0.1L20.6,57.1z"/>
		<path d="M70.6,60.9h-2.2l0.9-2.9h2.2L70.6,60.9z M72.4,57L72.4,57L69,57l0,0l-1.3,0.6l0,0l0,0l-0.8,2.6l-0.3,0.9l0,0.1l0.1,0
			l0.3,0.2l0.7,0.4l0,0h3.4l0,0l1.3-0.6l0,0l0,0l1.1-3.5l0-0.1l-0.1,0L72.4,57z"/>
		<path d="M54.7,59.8h-1.1l0.6-0.7l0.4-0.4L54.7,59.8z M48.7,59.1h-2.2l0.3-1h2.2L48.7,59.1z M55.8,57.1L55.8,57.1L54.2,57l0,0
			l0,0.1l-4,4.6L50,61.9l-0.1-0.1L49.2,60l1.2-0.5l0,0l0,0l0.5-1.7l0-0.1l-0.1,0L50,57l0,0h-4.6l0,0.1l-1.5,4.7l0,0.1h1.8l0-0.1
			l0.6-1.7h1l0.6,1.4l0.1,0.3l0,0h3.8l0,0l0.9-1.1h2.1l0.3,1.1l0,0.1h1.7l0-0.1L55.8,57.1z"/>
		<path d="M29.4,57.1l0-0.1h-1.8l0,0.1l-0.8,2.5l-1.6-2.5l0,0h-1.5l0,0.1l-1.5,4.7l0,0.1h1.8l0-0.1l0.8-2.5l1.6,2.5l0,0h1.5l0-0.1
			l1.2-3.7L29.4,57.1z"/>
		<path d="M34.6,60.3h-1.2l0,0.1l-0.1,0.4h-2.4l0.9-2.7h2.4l-0.2,0.7l1.2,0l0.2-0.6l0.3-1l0-0.1l0-0.1h-4.4l0,0l0,0L30,57.6h0l0,0
			l0,0l0,0l0,0l-0.8,2.4l-0.3,1l0,0l0,0.1l0.1,0l0,0l0.3,0.2l0.7,0.4l0,0l0,0h4.3l0-0.1l0.1-0.4h0l0-0.1l0.3-0.9L34.6,60.3z"/>
		<path d="M42.3,57h-5.8l0,0.1l-1.1,3.5L35,61.8l0,0.1h5.8l0-0.1L41,61l0-0.1h-4l0.3-0.9h3.2l0-0.1l0.3-0.8l0-0.1h-3.2L38,58h4
			l0-0.1l0.3-0.8L42.3,57z"/>
	</g>
</g>
</svg>
