<svg xmlns="http://www.w3.org/2000/svg" width="90" height="90" viewBox="0 0 90 90" fill="none">
<g clip-path="url(#clip0)">
<path d="M43.1399 34.3855H43.1502C43.6529 34.3855 44.0977 34.5539 44.4166 34.8265C44.7419 35.1016 44.9373 35.4848 44.9373 35.9104C44.9373 36.3976 44.6828 37.0842 44.2778 37.6114C43.9653 38.0176 43.568 38.3224 43.1502 38.3391H43.1322C43.118 38.3391 43.118 38.3404 43.1167 38.3404H43.0962C42.7002 38.3314 42.3299 38.0511 42.0342 37.6679C41.642 37.1614 41.3913 36.4915 41.3669 36.0016V35.9978C41.3643 35.9721 41.363 35.9489 41.363 35.9386C41.3617 35.9271 41.3617 35.9104 41.3617 35.8846C41.3617 35.0888 42.146 34.3855 43.1399 34.3855ZM40.0799 40.9581H46.3606C51.0548 34.4176 63.8657 30.122 70.8588 27.1404L67.6843 28.0893L67.4876 28.1484L58.5287 30.8472L56.7235 31.3898L46.7528 34.4163L44.7779 32.624L43.1502 32.6215L41.6022 32.6189L39.5656 34.4446L25.2118 30.041L18.733 28.0893L15.6049 27.1482C22.8499 30.266 36.1996 35.5053 40.0799 40.9581Z" fill="white"/>
<path d="M78.4006 51.1894H74.6848L76.2457 46.0349H79.9627L78.4006 51.1894ZM81.9517 43.5817H72.584L72.5158 43.8042L72.4811 43.9199L69.6924 53.1244H69.695L69.659 53.2388L69.5355 53.6425H79.4459C81.0942 53.6708 82.1587 53.0627 82.6525 51.5648L83.9716 47.2602C84.4705 45.7958 84.6132 45.032 84.3702 44.4535C84.0667 43.7322 82.952 43.574 81.9517 43.5817Z" fill="white"/>
<path d="M47.877 46.0353H51.6172L50.0563 51.1885H47.3434V51.1898H46.3162L47.877 46.0353ZM44.3271 53.643H51.1029C52.7486 53.67 53.8145 53.0618 54.3069 51.5639L55.6261 47.2593C55.9539 46.1369 56.6752 44.4963 55.4525 43.8869C54.9588 43.6413 54.2593 43.5757 53.6062 43.5809H49.5947V43.5822H46.833C45.1847 43.5552 44.1201 44.1607 43.6264 45.6599L42.3073 49.9645C41.9807 51.0869 41.2594 52.7275 42.4821 53.337C42.9746 53.5838 43.6753 53.6481 44.3271 53.643Z" fill="white"/>
<path d="M20.8096 46.0346H28.9019L28.9701 45.8122L29.0048 45.6965H29.0061L29.4895 44.1009H29.4882L29.523 43.9852L29.6464 43.5815H17.1466L17.0784 43.8039L17.0437 43.9196H17.0424L14.255 53.1241L14.2203 53.2385L14.0981 53.6423H26.5992L26.6661 53.4198L26.7008 53.3041H26.7021L27.1855 51.7085L27.2202 51.5915L27.3437 51.1891H19.2487L19.646 49.8738H26.0746L26.1415 49.6514L26.1762 49.5369L26.6815 47.8681L26.7162 47.7524L26.8396 47.3486H20.411L20.8096 46.0346Z" fill="white"/>
<path d="M65.3749 46.4645L65.1306 47.2809C65.0599 47.4995 64.93 47.5921 64.7037 47.6525L63.1892 48.0459L60.9687 48.6232L61.789 46.0351H65.0355C65.3582 46.0248 65.4726 46.1533 65.3749 46.4645ZM69.4673 47.4069C69.5676 47.0739 69.6692 46.7409 69.7695 46.4079C70.4831 44.3328 69.7001 43.596 67.8653 43.5806H58.1556C57.1887 46.7589 56.227 49.9424 55.264 53.1232H55.2653L55.2293 53.2377L55.1084 53.6427H59.4837L59.5506 53.4202L59.5866 53.3045H59.5879L60.5611 50.0902H62.0179L63.1892 52.5678L63.58 53.3945V53.3932L63.6122 53.4614L63.6957 53.6427H68.5429C67.9039 52.3762 67.2649 51.1111 66.6259 49.8459C68.6381 49.5927 69.1073 48.8135 69.4673 47.4069Z" fill="white"/>
<path d="M8.08076 48.0468L5.86032 48.6241L6.68061 46.0346H9.92835C10.2511 46.0256 10.3655 46.1529 10.2665 46.4654L10.0222 47.2805C9.95149 47.5004 9.82163 47.5917 9.59534 47.6534L8.08076 48.0468ZM8.58862 53.6423H13.4358C12.7955 52.3771 12.1565 51.1107 11.5175 49.8455C13.5297 49.5935 14.0002 48.8131 14.3589 47.4065C14.4592 47.0748 14.5621 46.7418 14.6624 46.4088C15.3747 44.3336 14.5917 43.5969 12.7582 43.5815H3.04716C2.0803 46.7598 1.11858 49.9432 0.155572 53.1241H0.156858L0.122143 53.2385L0 53.6423H4.3766L4.44346 53.4198L4.47817 53.3041H4.47946L5.45275 50.0898H6.90947L8.08076 52.5674L8.47291 53.3954V53.3941L8.50377 53.461L8.58862 53.6423Z" fill="white"/>
<path d="M41.7217 47.3214L42.434 45.1408C42.7053 44.3733 42.1923 43.5543 41.2961 43.5813H36.3165V43.5825H33.4789C31.8319 43.5555 30.766 44.1611 30.2736 45.6603L28.9545 49.9649C28.6266 51.0873 27.9053 52.7279 29.1293 53.3373C29.6217 53.5842 30.3225 53.6485 30.9743 53.6433H38.2965C39.1759 53.6703 40.1852 52.8513 40.3807 52.0837L40.9901 49.9597H37.6331L37.2756 51.1902H32.9633L34.5242 46.0357H38.6089L38.2207 47.3214H41.7217Z" fill="white"/>
<path d="M87.7306 41.8021H87.3127V41.2003H87.7306C87.899 41.2003 88.0018 41.2042 88.0353 41.2106C88.1176 41.2209 88.1754 41.2531 88.2191 41.3019C88.2616 41.3508 88.2821 41.4163 88.2821 41.4948C88.2834 41.5668 88.2641 41.6259 88.2358 41.6748C88.2024 41.7223 88.1548 41.7558 88.1008 41.7751C88.0481 41.7931 87.9234 41.8021 87.7306 41.8021ZM88.4069 42.3266C88.34 42.2495 88.2513 42.1852 88.1484 42.1235C88.3567 42.0952 88.5149 42.0219 88.6164 41.9062C88.7231 41.7905 88.7746 41.6413 88.7746 41.4639C88.7759 41.3251 88.7399 41.2003 88.6704 41.0911C88.6049 40.9818 88.5097 40.9059 88.3979 40.8635C88.2808 40.8211 88.0957 40.7979 87.8411 40.7979H86.8357V43.1739H87.3127V42.1813H87.4104C87.521 42.1813 87.6007 42.1903 87.6534 42.2071C87.6804 42.2173 87.7036 42.2315 87.7293 42.2469L87.7306 42.2482C87.7524 42.2636 87.773 42.2842 87.7961 42.3074C87.8411 42.3562 87.9286 42.4732 88.0481 42.6558L88.3979 43.1739H88.9674L88.6769 42.7085C88.5624 42.5246 88.4737 42.3961 88.4069 42.3266Z" fill="white"/>
<path d="M87.7307 43.7737H87.7294C86.7407 43.7737 85.9397 42.9727 85.9397 41.9852C85.941 40.9978 86.7407 40.1968 87.7294 40.1968H87.7307C88.7168 40.1968 89.5191 40.9978 89.5191 41.9852C89.5191 42.9727 88.7168 43.7737 87.7307 43.7737ZM87.7307 39.7147H87.7294C86.4745 39.7147 85.4575 40.733 85.4575 41.9852C85.4575 43.2375 86.4745 44.2558 87.7294 44.2571H87.7307C88.9817 44.2558 90 43.2375 90 41.9852C90 40.7317 88.9817 39.7147 87.7307 39.7147Z" fill="white"/>
<path d="M13.107 60.8921H10.9328L11.8598 57.9992H14.0353L13.107 60.8921ZM14.8132 61.2238L15.3737 59.4727L15.9394 57.71L15.9587 57.6508L15.906 57.6174L15.3737 57.2857L14.9636 57.0311L14.9443 57.0182H10.3478L10.3286 57.0812L8.82554 61.7677L8.79211 61.8718H13.4284L13.4451 61.8654L14.7643 61.2791L14.8003 61.2624L14.8132 61.2238Z" fill="white"/>
<path d="M61.544 60.8862H59.3814L60.3046 58.01H62.4672L61.544 60.8862ZM64.3623 57.7207L64.3816 57.6603L64.3302 57.6281L64.0614 57.461L63.3916 57.0457L63.3723 57.0341H58.799L58.7797 57.0958L57.2844 61.7579L57.251 61.862H61.8641L61.8809 61.8543L63.1923 61.2719L63.2296 61.2552L63.2412 61.2179L64.0614 58.6631L64.3623 57.7207Z" fill="white"/>
<path d="M67.0592 57.1383L67.0926 57.0341H65.2887L65.2682 57.0958L64.0622 60.8617L63.7742 61.7579L63.7407 61.862H65.5433L65.5639 61.8003L66.7892 57.9791L67.0592 57.1383Z" fill="white"/>
<path d="M19.5143 59.7873H18.388L18.9512 59.1033L19.3202 58.6558L19.5143 59.7873ZM20.6381 57.0808L20.6252 57.0191H19.0245L18.9975 57.05L18.9512 57.1027L15.3743 61.2016L14.9076 61.7364L14.7893 61.8714H16.6459L16.6742 61.8393L17.5806 60.7233H19.7381L19.9913 61.811L20.0055 61.8714H21.7631L21.7373 61.766L20.6381 57.0808Z" fill="white"/>
<path d="M70.5635 60.8862H68.4022L69.324 58.01H71.4866L70.5635 60.8862ZM72.4111 57.0457L72.3918 57.0341H69.0039L68.9872 57.0418L67.6757 57.6243L67.6397 57.641L67.6269 57.6783L66.7886 60.2896L66.5057 61.1754L66.4865 61.2346L66.5379 61.268L66.7886 61.4236L67.4777 61.8505L67.4957 61.862H70.8836L70.9016 61.8543L72.2131 61.2719L72.2491 61.2552L72.2606 61.2179L73.3818 57.7207L73.4023 57.6603L73.3496 57.6281L72.4111 57.0457Z" fill="white"/>
<path d="M54.6983 59.786H53.5772L54.1377 59.1071L54.5029 58.6623L54.6983 59.786ZM48.7441 59.0518H46.5816L46.9158 58.0078H49.0771L48.7441 59.0518ZM55.8169 57.0937L55.8028 57.0332H54.2097L54.1827 57.0641L54.1377 57.1168L50.1147 61.7261L49.999 61.8573L49.9437 61.7403L49.1504 60.02L50.3809 59.4723L50.4169 59.4556L50.4297 59.4183L50.9749 57.7211L50.9942 57.6607L50.9414 57.6285L50.0029 57.0448L49.9849 57.0332H45.4257L45.4051 57.095L43.9111 61.757L43.8777 61.8611H45.6816L45.7008 61.7994L46.2576 60.0637H47.2244L47.83 61.4728L47.9779 61.8149L47.9984 61.8611H51.844L51.871 61.829L52.7736 60.7181H54.9195L55.1728 61.8007L55.1856 61.8611H56.9342L56.9098 61.7544L55.8169 57.0937Z" fill="white"/>
<path d="M29.3928 57.1245L29.4262 57.0191H27.6429L27.6224 57.0808L26.8252 59.5674L25.1859 57.0551L25.1615 57.0191H23.6276L23.6071 57.0808L22.1053 61.7673L22.0719 61.8714H23.8693L23.8899 61.8097L24.6729 59.3257L26.3122 61.8367L26.3354 61.8714H27.8705L27.8911 61.811L29.0611 58.1583L29.3928 57.1245Z" fill="white"/>
<path d="M34.627 60.347H33.4274L33.4069 60.4087L33.2732 60.8021H30.8637L31.7727 58.0931H34.1796L33.9469 58.7874L35.1529 58.7861L35.3393 58.2242L35.6749 57.2162L35.7096 57.1108L35.7405 57.0182H31.3587L31.342 57.0247L31.3099 57.0401L29.9766 57.611H29.9753L29.9354 57.629L29.8994 57.6444L29.8866 57.683L29.8776 57.7087L29.0611 60.14L28.7243 61.1415L28.7166 61.1673L28.6947 61.2303L28.75 61.2624L28.777 61.2791L29.0611 61.4488L29.7284 61.8513L29.7516 61.8654L29.7696 61.8757H34.1102L34.1307 61.8165L34.2632 61.4205H34.2657L34.285 61.3601L34.591 60.4537L34.627 60.347Z" fill="white"/>
<path d="M42.309 57.0191H36.4949L36.4756 57.0808L35.3404 60.623L34.9739 61.7673L34.9392 61.8714H40.7532L40.7725 61.811L41.0335 60.9984L41.067 60.893H37.0799L37.3821 59.9544H40.6298L40.6491 59.8914L40.9217 59.0428L40.9551 58.9374H37.7074L38.0082 58.0001H41.9953L42.0145 57.9384L42.2755 57.1245L42.309 57.0191Z" fill="white"/>
</g>
<defs>
<clipPath id="clip0">
<rect width="90" height="90" fill="white"/>
</clipPath>
</defs>
</svg>