<svg xmlns="http://www.w3.org/2000/svg" width="90" height="90" viewBox="0 0 90 90" fill="white">
    <path fill-rule="evenodd" clip-rule="evenodd" d="M60.3413 22.1324V27.9893L64.3218 26.5831C64.3218 26.5831 64.3484 41.9822 64.3218 42.7858C63.8898 47.4782 58.9911 45.9822 57.3973 44.7867C56.9004 44.4187 53.2311 41.8613 53.2311 41.8613C56.7947 40.5982 62.3698 36.0338 59.6124 29.8284C56.1627 23.5067 50.0738 25.576 50.0738 25.576L33.3991 31.4107V37.1564L35.8116 36.3084V44.3164L25.0604 34.2231L14.0018 38.0889L14 43.848L17.3378 42.6222V59.0178L14.0489 60.1893V66.2231L26.64 61.8338V58.6472C24.3261 58.7701 23.6371 58.898 23.4179 58.978C22.8437 59.1682 22.329 60.0518 22.2402 60.4695L21.8499 62.3078L20.681 60.8464L20.185 61.7815L19.3877 60.3655L19.297 60.2046L18.3433 61.05L18.2526 59.1993L18.1815 57.7504L18.1602 57.3184L18.4864 57.0349C20.3219 55.442 20.4135 55.3958 20.529 55.338C20.7089 55.2485 20.7351 55.2455 22.0778 55.0942L22.0917 55.0926C23.089 54.9806 24.9468 54.7709 25.3842 54.6518C25.8386 54.5316 26.2626 54.3731 26.64 54.2008V48.2836L28.9835 50.4227C29.262 49.7695 29.7719 48.976 30.2819 48.858L30.5433 48.7975L30.7939 48.8918C31.1047 49.0081 31.2584 49.2387 31.4713 49.5581L31.4722 49.5593C31.4953 49.594 31.5184 49.6295 31.5406 49.6624C31.7166 49.4669 31.9024 49.258 32.0464 49.0953L32.1092 49.0246C32.3173 48.7902 32.5049 48.579 32.6277 48.4464C33.0348 48.0046 34.841 46.2491 36.0375 45.3398C37.2393 44.4171 38.8526 43.386 41.7157 42.7335C42.7433 42.4998 43.7993 42.3815 44.8544 42.3815C46.5548 42.3815 48.2046 42.6873 49.6082 43.2589C51.2443 43.8851 53.2931 45.3749 55.2758 46.8166L55.2802 46.8198C56.8393 47.954 58.313 49.0251 59.4339 49.5762C59.4757 49.5975 59.6562 49.6989 59.6562 49.6989L59.6576 49.6996C60.8448 50.3661 62.1912 51.122 64.2366 51.122C64.4882 51.122 64.7486 51.1104 65.0339 51.0864C65.7886 51.0224 66.5326 50.9406 67.2704 50.7611C69.2704 50.2757 71.1077 49.1842 72.2517 47.442C72.8135 46.586 73.2508 45.5629 73.409 44.5486C73.4947 43.9987 73.5867 43.4497 73.6786 42.9007C73.855 41.848 74.0314 40.7954 74.1628 39.7362C74.3745 38.0278 74.476 36.4146 74.502 34.9163L74.5037 33.4263C74.5025 33.3506 74.5012 33.2752 74.4997 33.2002L74.5039 33.2476C74.5123 25.8346 74.5227 17.2204 74.5227 17.2204L60.3413 22.1324ZM72.4975 50.4418C73.0268 49.5286 73.4192 48.6722 73.7094 47.888C73.9571 47.2566 74.1514 46.5883 74.2846 45.8854C74.5718 44.4701 74.5124 43.4847 74.4886 43.0996C74.1864 47.7307 71.2442 51.5352 65.0842 51.8996C64.7891 51.9254 64.5064 51.9369 64.2344 51.9369C61.9572 51.9369 60.4686 51.1014 59.2209 50.4011L59.0397 50.2996C57.8498 49.7146 56.3249 48.6057 54.7553 47.4644L54.7553 47.4643C52.8192 46.0565 50.8153 44.5993 49.2886 44.0152C48.0415 43.5076 46.5073 43.1965 44.8531 43.1965C43.902 43.1965 42.91 43.2987 41.9108 43.5263C39.182 44.1485 37.6886 45.1174 36.5775 45.9707C35.4664 46.8152 33.6975 48.5218 33.2797 48.9752C33.1472 49.1188 32.9382 49.3542 32.7105 49.6108C32.2053 50.1801 31.6077 50.8535 31.5464 50.8596C31.5446 50.8605 31.5429 50.8605 31.5402 50.8605C31.4424 50.8605 31.1073 50.4818 30.942 50.2818C30.878 50.2001 30.8026 50.0871 30.7307 49.9792L30.7306 49.9791L30.7306 49.979C30.6227 49.8171 30.5224 49.6667 30.4797 49.6507C30.3642 49.6774 29.7064 50.6285 29.6531 51.1352C29.6159 51.4881 29.7384 51.9576 29.8191 52.267C29.8543 52.4018 29.8815 52.5062 29.8842 52.5574C29.8931 52.7352 29.6886 52.8863 29.6086 52.8952C29.563 52.8952 29.4121 52.7266 29.2651 52.5625C29.1257 52.4068 28.9898 52.2552 28.9509 52.2552C28.8797 52.2641 28.6486 52.6818 28.5686 52.9663C28.4975 53.2418 28.6131 53.9618 28.6131 53.9618C27.9642 54.5041 26.8531 55.1085 25.6086 55.4374C25.1118 55.5729 23.3996 55.7657 22.1888 55.9021L22.1885 55.9021L22.1883 55.9022L22.1877 55.9022C21.4926 55.9805 20.9631 56.0402 20.9242 56.0596C20.8175 56.1129 19.0664 57.6329 19.0664 57.6329L19.0699 57.7042L19.0668 57.7069L19.1379 59.1558L19.529 58.8091L20.1602 59.9291L20.5424 59.2091C20.5424 59.2091 21.0846 59.9291 21.369 60.2846C21.4935 59.698 22.1424 58.4624 23.1379 58.1335C23.4222 58.0289 24.0503 57.9149 24.793 57.8061C26.1173 57.6886 27.8097 57.6257 28.5815 57.597H28.5816L28.5818 57.597C28.8199 57.5881 28.9704 57.5825 28.9953 57.5796C28.9852 57.6557 28.8998 57.9197 28.8284 58.1407L28.8284 58.1408C28.7746 58.3073 28.7286 58.4494 28.7286 58.4685C28.7286 58.5041 29.7775 59.6063 29.8397 59.6329C29.8442 59.6347 29.8513 59.6356 29.8593 59.6356C29.9713 59.6356 30.4202 59.4792 30.462 59.4463C30.5064 59.4196 30.5597 59.3129 30.5775 59.1974L30.5915 59.1976C30.6046 59.1979 30.6244 59.1983 30.6495 59.1983C30.7704 59.1983 31.0104 59.1876 31.1464 59.0996C30.6664 58.9485 30.6575 58.6641 30.782 58.4063C30.8575 58.2498 31.1722 58.1458 31.4975 58.1458C31.7073 58.1458 31.9224 58.1894 32.0797 58.2907C32.4797 58.5574 32.702 59.0018 32.5064 59.4818C32.4211 59.6969 32.2406 59.7538 32.0682 59.7538C31.9287 59.7538 31.7947 59.7173 31.7197 59.6968C31.7034 59.6923 31.6899 59.6887 31.6797 59.6863C31.7002 59.7324 31.839 59.8347 31.9544 59.9198L31.9545 59.9199C32.0393 59.9824 32.1115 60.0357 32.1153 60.0507C32.1331 60.0863 32.1242 60.1841 32.1242 60.1841C32.1242 60.1841 32.2335 60.3352 32.3135 60.3352H32.3197C32.3909 60.3263 33.982 59.4729 34.0975 59.3841C34.2131 59.3041 34.5331 58.9841 34.7464 58.5929C34.7464 58.5929 34.2042 58.2285 34.2309 57.5974C34.2628 57.0161 34.7357 56.6623 35.2949 56.6623C35.3517 56.6623 35.4086 56.6658 35.4664 56.6729C36.1064 56.7529 36.4442 57.3041 36.2664 58.0241C36.1153 58.5929 33.1997 61.9885 30.5864 63.2952C29.0629 64.1826 27.6435 64.1888 27.2659 64.1905C27.2161 64.1907 27.1845 64.1909 27.1731 64.1929C27.0842 64.2107 25.5286 65.5529 25.5286 65.5529L25.4486 66.7707L25.742 66.6196L26.1953 67.8907L26.5242 67.4018L27.4842 68.4241L27.6886 67.5618L28.8797 68.4685C28.8797 68.4685 28.942 68.0152 28.9775 67.6241C29.0184 67.5877 29.1656 67.4561 29.3652 67.2776L29.3688 67.2744L29.3729 67.2707L29.3758 67.2681L29.3772 67.2669C29.9604 66.7454 30.9729 65.8401 31.1109 65.7218C31.1715 65.6643 31.5163 65.4723 32.0354 65.1834C33.0386 64.6249 34.6928 63.7042 36.2042 62.6907C38.8353 60.9307 41.3864 59.0641 41.4309 58.6196C41.102 58.3529 39.8309 57.1618 39.8753 55.8463C39.9109 54.5396 41.4131 53.2952 43.1731 52.5129C43.8468 52.2169 44.5971 52.0729 45.3517 52.0729C46.5668 52.0729 47.7944 52.4454 48.7375 53.1529C49.7331 53.8543 53.8237 56.6712 59.3722 56.6712C59.6664 56.6712 59.9651 56.6632 60.2664 56.6463C66.5775 56.3085 70.2842 54.2552 72.4975 50.4418ZM49.5609 37.1929C48.3778 37.5956 44.888 38.9013 44.888 38.9013V33.352C44.888 33.352 47.2996 32.4916 48.4969 32.0836C49.6756 31.6809 50.7102 32.8498 50.7742 33.9973C50.7762 34.0333 50.7784 34.0697 50.7807 34.1067L50.7861 34.1925C50.8495 35.2013 50.9342 36.5475 49.5609 37.1929ZM68.4436 17.0951C71.7831 17.0951 74.4907 14.3876 74.4907 11.048C74.4907 7.70844 71.7831 5 68.4436 5C65.1031 5 62.3956 7.70756 62.3956 11.0471C62.3956 14.3867 65.1031 17.0951 68.4436 17.0951ZM57.2325 19.5384C55.6574 20.0816 54.7578 19.23 54.7578 17.7749C54.7578 16.3198 55.6574 14.8487 57.2325 14.3047C58.8085 13.7598 59.708 14.6104 59.708 16.0656C59.708 17.5224 58.8085 18.9944 57.2325 19.5384ZM57.2334 15.43C56.3889 15.7224 56.0663 16.5713 56.0663 17.3233C56.0663 18.0753 56.3889 18.7038 57.2334 18.4131C58.0769 18.1207 58.4014 17.2709 58.4014 16.5189C58.4014 15.766 58.0769 15.1393 57.2334 15.43ZM49.369 17.2197L47.9415 17.7122L46.2961 21.5717V18.2811L45.0312 18.7175V23.7388L46.5006 23.2313L48.1032 19.4713V22.6784L49.369 22.2411V17.2197ZM36.1666 25.6307L37.7781 25.0752V22.3045L36.7017 22.6761V22.8458C36.7017 23.7241 36.6173 24.5694 36.1666 25.6307ZM39.6617 24.4245V26.7756L38.4164 27.2041V25.9801L35.5266 26.9765V28.2014L34.2812 28.6307V26.2814L34.7879 26.1072C35.2875 25.0138 35.4573 23.9854 35.4573 22.8805V21.981L39.0848 20.7285V24.6236L39.6617 24.4245ZM26.4083 26.5018L26.4217 26.4974L26.9781 28.0636L25.8386 28.4574L26.4083 26.5018ZM23.875 31.0058L25.219 30.5418L25.5346 29.533L27.2866 28.9285L27.5959 29.7214L28.9603 29.2503L27.0821 24.877L25.7532 25.3356L23.875 31.0058ZM14.2031 34.2342L15.5107 33.7835V32.1098L16.5871 31.7382C17.692 31.3578 18.4013 30.6271 18.4013 29.3818C18.4013 28.1942 17.5213 28.068 16.5871 28.3915L14.204 29.2138L14.2031 34.2342ZM15.5107 29.8102L16.3907 29.5062C16.7907 29.3675 17.0938 29.4466 17.0938 29.9249C17.0938 30.3818 16.8049 30.6502 16.3907 30.7924L15.5107 31.0964V29.8102ZM74.5227 72.7373H14V84.9995H74.5227V72.7373ZM22.9144 76.2767H20.0086L19.6752 77.8652H22.3855L22.0157 79.6252H19.3064L18.9126 81.4474H21.941L21.5597 83.2456H16.2539L18.1117 74.4785H23.2957L22.9144 76.2767ZM29.0455 83.2456H31.4837L33.3548 74.4785H31.201L30.5601 77.7905C30.5192 78.0127 30.4659 78.3407 30.4001 78.7754C30.3343 79.2101 30.2641 79.7603 30.1903 80.4252C30.1903 79.9905 30.1743 79.555 30.1415 79.1203C30.1086 78.6856 30.0712 78.251 30.0303 77.8154L29.6863 74.4785H27.2117L25.3281 83.2456H27.4579L28.0117 80.475C28.1183 79.9576 28.2126 79.443 28.2952 78.9292C28.377 78.4172 28.4383 77.9016 28.4801 77.3852C28.5201 77.827 28.553 78.2714 28.5779 78.7141C28.6028 79.1576 28.6392 79.6003 28.689 80.0439L29.0455 83.2456ZM42.1965 76.2767H39.2907L38.9583 77.8652H41.6667L41.2969 79.6252H38.5885L38.1947 81.4474H41.2232L40.8418 83.2456H35.5352L37.3938 74.4785H42.5778L42.1965 76.2767ZM51.4282 78.1843C51.8104 77.7416 52.0015 77.1425 52.0015 76.387C52.0015 75.9363 51.9197 75.5843 51.7571 75.3283C51.5917 75.0741 51.3766 74.883 51.11 74.755C50.8433 74.6278 50.5402 74.5505 50.1988 74.5221C49.8593 74.4927 49.5073 74.4785 49.1464 74.4785H46.5242L44.6406 83.2456H46.9304L47.6931 79.675H47.9891C48.2771 79.675 48.4842 79.7327 48.6113 79.8474C48.7384 79.9621 48.8024 80.1683 48.8024 80.4634C48.8024 80.6021 48.7837 80.7932 48.7473 81.0359C48.7108 81.2785 48.6637 81.555 48.606 81.867C48.5642 82.0883 48.534 82.2696 48.5135 82.4083C48.4931 82.5487 48.4824 82.667 48.4824 82.7656C48.4824 82.8554 48.4868 82.9318 48.494 82.9932C48.5028 83.0545 48.5233 83.1381 48.5562 83.2456H50.9686V83.1585C50.838 83.1256 50.7722 83.0021 50.7722 82.7887C50.7722 82.699 50.7793 82.5798 50.7962 82.4323C50.8122 82.2838 50.8406 82.0794 50.8824 81.8163C50.9224 81.5621 50.966 81.3078 51.0113 81.0527C51.0557 80.7976 51.0788 80.5398 51.0788 80.2767C51.0788 80.0554 51.0495 79.8687 50.9917 79.7167C50.9348 79.5647 50.8504 79.435 50.7393 79.3283C50.6282 79.2225 50.4957 79.1345 50.3393 79.0643C50.1837 78.9958 50.0068 78.9398 49.8095 78.899C50.5073 78.8652 51.0477 78.6278 51.4282 78.1843ZM49.4397 76.2518C49.5873 76.3754 49.662 76.5718 49.662 76.843C49.662 77.0972 49.6113 77.3354 49.5091 77.5576C49.406 77.779 49.2735 77.9354 49.1082 78.0252C49.0024 78.091 48.8877 78.1345 48.7642 78.155C48.6406 78.1754 48.4771 78.1852 48.2717 78.1852H48.0122L48.4557 76.0678H48.6895C49.0415 76.0678 49.2922 76.1292 49.4397 76.2518ZM61.7996 76.3882C61.7996 76.4699 61.7978 76.5402 61.7925 76.5971C61.7892 76.651 61.7851 76.7041 61.781 76.7579L61.7801 76.7695C61.7765 76.8273 61.7685 76.8886 61.7561 76.9535C61.7436 77.0193 61.7294 77.1011 61.7134 77.1997H59.5098C59.5507 77.0113 59.5774 76.8593 59.5898 76.7446C59.6014 76.6291 59.6085 76.5268 59.6085 76.4362C59.6085 76.0335 59.4281 75.8335 59.0663 75.8335C58.9187 75.8335 58.7934 75.8726 58.6903 75.9499C58.5881 76.0273 58.4983 76.1491 58.4201 76.3126C58.3418 76.4771 58.2681 76.6886 58.1978 76.9464C58.1276 77.2059 58.053 77.5153 57.9703 77.8762C57.9294 78.0397 57.8947 78.1837 57.8654 78.3073L57.8624 78.3204L57.8621 78.3215L57.8619 78.3225C57.8345 78.4413 57.8065 78.5634 57.7792 78.6895C57.7507 78.8211 57.7196 78.9686 57.6867 79.1331C57.6538 79.2975 57.613 79.4939 57.5632 79.7233C57.4734 80.1837 57.4103 80.5277 57.373 80.7579C57.3356 80.9873 57.3178 81.1686 57.3178 81.2993C57.3178 81.7428 57.5107 81.9633 57.8965 81.9633C58.0778 81.9633 58.2245 81.9171 58.3401 81.8228C58.4556 81.7286 58.5472 81.6095 58.6174 81.4664C58.6867 81.3224 58.7418 81.1704 58.7836 81.0104C58.8245 80.8513 58.8618 80.7011 58.8938 80.5615C58.9187 80.4468 58.9392 80.3544 58.9552 80.2842C58.9707 80.2197 58.9884 80.1373 59.0105 80.0348L59.0106 80.0344L59.0165 80.0068H58.2165L58.5365 78.5295H61.5036L60.4938 83.2451H58.9427V82.9251C58.9507 82.8593 58.9552 82.8015 58.9552 82.7526C58.9552 82.7037 58.9596 82.6344 58.9676 82.5446C58.7543 82.8726 58.4921 83.1046 58.1801 83.2397C57.8681 83.3757 57.5232 83.4433 57.1454 83.4433C55.7258 83.4433 55.0156 82.7535 55.0156 81.3739C55.0156 81.0459 55.0423 80.7197 55.0956 80.3953C55.1498 80.0717 55.2094 79.7499 55.2743 79.4291C55.373 78.9615 55.4654 78.5402 55.5507 78.1668C55.637 77.7935 55.7294 77.4379 55.829 77.1011C55.9596 76.6495 56.1098 76.2504 56.2778 75.9011C56.4458 75.5517 56.6538 75.2593 56.9001 75.0202C57.1454 74.7819 57.4476 74.6024 57.805 74.4788C58.1623 74.3553 58.5996 74.2939 59.1161 74.2939C59.461 74.2939 59.7952 74.3268 60.1196 74.3926C60.4432 74.4584 60.7285 74.5713 60.9756 74.7322C61.221 74.8913 61.4201 75.1046 61.573 75.3722C61.7223 75.6388 61.7996 75.9775 61.7996 76.3882ZM68.2569 83.2456L68.9832 79.835L72.2694 74.4785H69.7592L68.9458 76.1283C68.8063 76.3994 68.6809 76.6785 68.5707 76.9656C68.4587 77.2536 68.3503 77.5407 68.2436 77.8279C68.2685 77.5487 68.2765 77.2696 68.2685 76.9905C68.2596 76.7123 68.2427 76.4332 68.2178 76.1541L68.0596 74.4794H65.5352L66.7049 79.835L65.9787 83.2456H68.2569ZM30.1206 54L29.6992 55.8578L29.9606 55.7449L30.7232 54.2213L30.1206 54Z"/>
</svg>