<svg xmlns="http://www.w3.org/2000/svg" width="90" height="90" viewBox="0 0 90 90" fill="none">
<path fill-rule="evenodd" clip-rule="evenodd" d="M35.8219 5.26705C35.5085 5.61483 34.2294 8.19581 33.6686 9.61236C32.1284 13.5023 31.311 17.9295 31.3107 22.3844L31.3105 24.1109H37.4892H43.6678L43.5657 23.5055C43.4397 22.7598 43.6187 20.4376 43.802 20.4376C43.8754 20.4376 43.9356 21.2641 43.9356 22.2742V24.1109H49.7923H55.6489L55.7535 21.8702C55.8802 19.1537 55.6387 14.6175 55.2453 12.3254C54.7879 9.66041 53.7309 6.41839 53.0421 5.56693C52.7928 5.25897 52.7655 5.25573 52.4057 5.4917C51.4776 6.10044 49.8195 8.59649 48.9159 10.7453L48.4131 11.9409L47.7525 11.8592C47.3891 11.8143 46.3652 11.6776 45.477 11.5557C43.0037 11.2157 40.2789 11.2762 38.9283 11.701C38.7354 11.7617 38.6454 11.5392 38.4368 10.4865C38.1248 8.9118 37.5817 7.15378 37.0284 5.92823C36.5859 4.94791 36.2672 4.77321 35.8219 5.26705ZM39.2386 15.7496C39.6507 15.8381 40.1645 16.0627 40.3806 16.2486C40.7241 16.5444 40.755 16.6395 40.627 17.0062C40.459 17.4878 39.3388 18.2979 38.5299 18.5227C37.1419 18.9086 35.2399 18.5312 34.3704 17.6972C33.861 17.2088 33.8451 16.917 34.3046 16.485C35.1073 15.7302 37.4921 15.3748 39.2386 15.7496ZM51.863 16.2053C52.6949 16.4689 53.0374 16.7574 53.0374 17.1946C53.0374 17.948 51.7904 18.7895 50.4719 18.9257C48.7958 19.0988 46.6824 17.8142 47.1635 16.9147C47.6264 16.0491 50.1625 15.6662 51.863 16.2053ZM37.3717 16.2784C37.0595 17.0929 37.4089 18.6633 37.7737 18.0855C37.9289 17.84 37.9648 16.6201 37.8276 16.2621C37.711 15.958 37.4915 15.9658 37.3717 16.2784ZM50.1943 16.5462C50.0448 16.9358 50.0875 18.6486 50.2492 18.7485C50.4713 18.886 50.6059 18.4057 50.6082 17.4671C50.6103 16.6067 50.3732 16.0792 50.1943 16.5462ZM44.7153 18.3907C45.1607 18.5146 45.2655 18.6085 45.2291 18.8506C45.204 19.0181 45.0397 19.25 44.8641 19.3662C44.5702 19.5604 44.5507 19.5543 44.62 19.2893C44.6614 19.1311 44.619 18.9543 44.5259 18.8967C44.305 18.7601 44.1858 18.89 44.1567 19.2989C44.1392 19.5444 44.0272 19.642 43.7214 19.6778C43.3496 19.7215 43.3167 19.6896 43.3822 19.3472C43.4654 18.9114 43.1253 18.8158 42.8469 19.1966C42.6459 19.4717 42.174 19.3343 42.174 19.0009C42.174 18.8744 42.2833 18.6502 42.4169 18.5024C42.6981 18.1913 43.8047 18.1377 44.7153 18.3907Z" fill="white"/>
<path d="M65.0942 36.397C64.837 35.668 64.0105 34.7518 63.2683 34.3728C61.7031 33.5736 59.6757 34.129 58.7086 35.6218C58.0935 36.5711 58.0039 37.4251 58.055 41.8524C58.0986 45.6231 58.1252 45.9798 58.409 46.5912C59.4891 48.9193 62.5906 49.43 64.3103 47.5629C65.2628 46.5288 65.2955 46.3228 65.2955 41.3752C65.2955 38.0171 65.2476 36.8315 65.0942 36.397Z" fill="white"/>
<path d="M26.0627 41.9736C29.0255 40.9154 29.2159 36.7523 26.3663 35.3359C25.8735 35.091 25.414 35.0535 22.5758 35.0269C18.8495 34.9919 18.4376 35.0772 17.4233 36.0924C16.9935 36.5225 16.7243 36.9633 16.5666 37.4946C16.2824 38.4526 16.2806 38.7096 16.5526 39.622C16.841 40.5894 17.5474 41.4104 18.4549 41.8335C19.1659 42.1649 19.341 42.1802 22.3556 42.1754C24.6092 42.1718 25.6694 42.1141 26.0627 41.9736Z" fill="white"/>
<path d="M79.395 37.0282C79.8627 36.1229 79.506 34.963 78.6496 34.6048C78.3504 34.4797 77.6481 34.396 76.8976 34.396H75.6451V37.9223H76.9075C78.3608 37.9223 79.0636 37.6697 79.395 37.0282Z" fill="white"/>
<path fill-rule="evenodd" clip-rule="evenodd" d="M0 24H90V72.4592H75.636V82.9646L61.56 72.4592H0V24ZM54.702 33.7371C55.6815 31.8811 57.884 30.2246 59.9777 29.7693C61.861 29.3598 63.6535 29.6112 65.4066 30.531C67.3244 31.5372 68.7593 33.3088 69.4296 35.498C69.6692 36.2801 69.6996 36.9432 69.6996 41.3752C69.6996 45.8072 69.6692 46.4703 69.4296 47.2524C68.5839 50.0145 66.5385 52.0567 63.8275 52.8456C62.6724 53.1816 60.7252 53.1816 59.5702 52.8456C56.8592 52.0567 54.8138 50.0145 53.968 47.2524C53.7284 46.4703 53.6981 45.8072 53.6981 41.3752C53.6981 35.8497 53.7349 35.5694 54.702 33.7371ZM6.68308 38.747C6.65519 33.0395 6.69013 30.9221 6.81462 30.7719C6.94689 30.6124 7.4055 30.5765 8.90788 30.6084L10.8316 30.6493L10.911 36.5999H12.1854L12.4984 35.7817C13.4613 33.263 15.6931 31.3519 18.3185 30.7978C19.7262 30.5007 25.1163 30.497 26.5082 30.7922C30.8333 31.7095 33.6477 36.1277 32.6411 40.4201C31.9595 43.3264 29.4016 45.8279 26.4956 46.43C25.2964 46.6785 19.2571 46.6351 18.1336 46.3699C15.6144 45.7756 13.2229 43.6414 12.4433 41.2924C12.2035 40.5697 12.2002 40.5671 11.5568 40.5671H10.911L10.8316 46.5177H6.72111L6.68308 38.747ZM34.4288 38.747C34.4014 33.1308 34.4369 30.9208 34.557 30.7761C34.7702 30.5189 36.979 30.5101 37.4153 30.7646C37.5835 30.8628 38.9317 32.3316 40.4111 34.0287C41.8905 35.7257 43.1799 37.1142 43.2764 37.1142C43.3728 37.1142 44.66 35.7257 46.1368 34.0287C47.6137 32.3316 48.9612 30.8628 49.1313 30.7646C49.5724 30.5103 51.7801 30.5191 51.9931 30.7761C52.1132 30.9208 52.1487 33.1308 52.1212 38.747L52.0832 46.5177L50.1216 46.5589C48.8006 46.5865 48.0936 46.5446 47.9563 46.4306C47.7919 46.2941 47.7525 45.513 47.7525 42.3858C47.7525 39.2532 47.715 38.51 47.5567 38.51C47.4491 38.51 46.5076 39.4995 45.4648 40.7088C44.0438 42.3568 43.492 42.8999 43.2627 42.8761C43.0727 42.8565 42.2446 42.0242 41.0752 40.6773C40.0402 39.4852 39.1045 38.51 38.9956 38.51C38.8344 38.51 38.7976 39.2318 38.7976 42.3858C38.7976 45.513 38.7582 46.2941 38.5938 46.4306C38.4565 46.5446 37.7495 46.5865 36.4284 46.5589L34.4669 46.5177L34.4288 38.747ZM71.2764 38.747C71.2478 32.9004 71.2817 30.9242 71.4134 30.7653C71.5593 30.5895 72.2127 30.563 75.3417 30.6065C78.848 30.6553 79.1507 30.681 79.9442 30.997C81.1324 31.4705 82.3831 32.6628 82.9264 33.8403C83.3019 34.6543 83.3522 34.9286 83.3522 36.1622C83.3522 37.4457 83.3126 37.6418 82.8716 38.5384C82.2656 39.7704 81.1097 40.8622 79.9386 41.3088C79.3133 41.5472 78.6485 41.6502 77.37 41.7066L75.6451 41.7829V44.0221C75.6451 45.7533 75.5989 46.2998 75.4413 46.4306C75.3041 46.5446 74.5971 46.5865 73.276 46.5589L71.3144 46.5177L71.2764 38.747ZM6.64771 58.7816C6.64771 54.5281 6.69248 51.0032 6.74738 50.9484C6.80214 50.8935 9.29588 50.866 12.2892 50.8871L17.7313 50.9256V55.0397L10.9784 55.1866L10.8932 57.6039L15.9697 57.6844V61.3577L10.905 61.4381V64.0637C10.905 66.3223 10.8725 66.7017 10.6727 66.7784C10.2275 66.9494 7.00899 66.8765 6.82387 66.6913C6.69131 66.5586 6.64771 64.6004 6.64771 58.7816ZM19.4196 58.8687C19.4196 54.5673 19.4636 51.004 19.5175 50.9502C19.5712 50.8963 20.2213 50.8522 20.9619 50.8522H22.3083L26.3161 54.1581C28.5203 55.9764 30.3763 57.464 30.4405 57.464C30.5048 57.464 32.3597 55.9742 34.5624 54.1531L38.5677 50.8423L41.3666 50.9256L41.4046 58.777C41.4346 64.9606 41.4033 66.6532 41.2578 66.7456C40.9263 66.9563 37.5324 66.8918 37.3496 66.6714C37.2404 66.5398 37.1744 64.9886 37.1482 61.9451C37.1227 58.9792 37.0568 57.3975 36.9569 57.3641C36.8731 57.3362 35.3997 58.4712 33.6825 59.8865C31.9653 61.3017 30.502 62.4597 30.4307 62.4597C30.3593 62.4597 28.8994 61.3005 27.1862 59.8838C25.4731 58.467 23.9992 57.332 23.9109 57.3615C23.8003 57.3982 23.7381 58.8278 23.7113 61.9451C23.6852 64.9886 23.6192 66.5398 23.5099 66.6714C23.3912 66.8147 22.8806 66.8676 21.6156 66.8676C20.6633 66.8676 19.7795 66.8275 19.6518 66.7784C19.4441 66.6986 19.4196 65.8645 19.4196 58.8687Z" fill="white"/>
</svg>