<?xml version="1.0" encoding="utf-8"?>
<!-- Generator: Adobe Illustrator 23.1.0, SVG Export Plug-In . SVG Version: 6.00 Build 0)  -->
<svg version="1.1" id="Слой_1" xmlns="http://www.w3.org/2000/svg" xmlns:xlink="http://www.w3.org/1999/xlink" x="0px" y="0px"
	 viewBox="0 0 90 90" style="enable-background:new 0 0 90 90;" xml:space="preserve">
<style type="text/css">
	.st0{fill:#FFDD00;enable-background:new    ;}
	.st1{fill-rule:evenodd;clip-rule:evenodd;}
	.st2{fill-rule:evenodd;clip-rule:evenodd;fill:#F7DC2B;}
	.st3{fill:#F7DC2B;}
</style>
<path class="st0" d="M90,24H0v48.5h61.6L75.6,83V72.5H90V24z"/>
<path class="st1" d="M35.8,5.3c-0.3,0.3-1.6,2.9-2.2,4.3c-1.5,3.9-2.4,8.3-2.4,12.8l0,1.7h6.2h6.2l-0.1-0.6
	c-0.1-0.7,0.1-3.1,0.2-3.1c0.1,0,0.1,0.8,0.1,1.8v1.8h5.9h5.9l0.1-2.2c0.1-2.7-0.1-7.3-0.5-9.5c-0.5-2.7-1.5-5.9-2.2-6.8
	c-0.2-0.3-0.3-0.3-0.6-0.1c-0.9,0.6-2.6,3.1-3.5,5.3l-0.5,1.2l-0.7-0.1c-0.4,0-1.4-0.2-2.3-0.3c-2.5-0.3-5.2-0.3-6.5,0.1
	c-0.2,0.1-0.3-0.2-0.5-1.2c-0.3-1.6-0.9-3.3-1.4-4.6C36.6,4.9,36.3,4.8,35.8,5.3z M39.2,15.7c0.4,0.1,0.9,0.3,1.1,0.5
	c0.3,0.3,0.4,0.4,0.2,0.8c-0.2,0.5-1.3,1.3-2.1,1.5c-1.4,0.4-3.3,0-4.2-0.8c-0.5-0.5-0.5-0.8-0.1-1.2C35.1,15.7,37.5,15.4,39.2,15.7
	z M51.9,16.2c0.8,0.3,1.2,0.6,1.2,1c0,0.8-1.2,1.6-2.6,1.7c-1.7,0.2-3.8-1.1-3.3-2C47.6,16,50.2,15.7,51.9,16.2z M37.4,16.3
	c-0.3,0.8,0,2.4,0.4,1.8c0.2-0.2,0.2-1.5,0.1-1.8C37.7,16,37.5,16,37.4,16.3z M50.2,16.5c-0.1,0.4-0.1,2.1,0.1,2.2
	c0.2,0.1,0.4-0.3,0.4-1.3C50.6,16.6,50.4,16.1,50.2,16.5z M44.7,18.4c0.4,0.1,0.6,0.2,0.5,0.5c0,0.2-0.2,0.4-0.4,0.5
	c-0.3,0.2-0.3,0.2-0.2-0.1c0-0.2,0-0.3-0.1-0.4c-0.2-0.1-0.3,0-0.4,0.4c0,0.2-0.1,0.3-0.4,0.4c-0.4,0-0.4,0-0.3-0.3
	c0.1-0.4-0.3-0.5-0.5-0.2c-0.2,0.3-0.7,0.1-0.7-0.2c0-0.1,0.1-0.4,0.2-0.5C42.7,18.2,43.8,18.1,44.7,18.4z"/>
<path class="st1" d="M60,29.8c-2.1,0.5-4.3,2.1-5.3,4c-1,1.8-1,2.1-1,7.6c0,4.4,0,5.1,0.3,5.9c0.8,2.8,2.9,4.8,5.6,5.6
	c1.2,0.3,3.1,0.3,4.3,0c2.7-0.8,4.8-2.8,5.6-5.6c0.2-0.8,0.3-1.4,0.3-5.9s0-5.1-0.3-5.9c-0.7-2.2-2.1-4-4-5
	C63.7,29.6,61.9,29.4,60,29.8z M6.8,30.8c-0.1,0.2-0.2,2.3-0.1,8l0,7.8h2.1h2.1l0-3l0-3h0.6c0.6,0,0.6,0,0.9,0.7
	c0.8,2.3,3.2,4.5,5.7,5.1c1.1,0.3,7.2,0.3,8.4,0.1c2.9-0.6,5.5-3.1,6.1-6c1-4.3-1.8-8.7-6.1-9.6c-1.4-0.3-6.8-0.3-8.2,0
	c-2.6,0.6-4.9,2.5-5.8,5l-0.3,0.8h-0.6h-0.6l0-3l0-3l-1.9,0C7.4,30.6,6.9,30.6,6.8,30.8z M34.6,30.8c-0.1,0.1-0.2,2.4-0.1,8l0,7.8
	l2,0c1.3,0,2,0,2.2-0.1c0.2-0.1,0.2-0.9,0.2-4c0-3.2,0-3.9,0.2-3.9c0.1,0,1,1,2.1,2.2c1.2,1.3,2,2.2,2.2,2.2c0.2,0,0.8-0.5,2.2-2.2
	c1-1.2,2-2.2,2.1-2.2c0.2,0,0.2,0.7,0.2,3.9c0,3.1,0,3.9,0.2,4c0.1,0.1,0.8,0.2,2.2,0.1l2,0l0-7.8c0-5.6,0-7.8-0.1-8
	c-0.2-0.3-2.4-0.3-2.9,0c-0.2,0.1-1.5,1.6-3,3.3c-1.5,1.7-2.8,3.1-2.9,3.1c-0.1,0-1.4-1.4-2.9-3.1c-1.5-1.7-2.8-3.2-3-3.3
	C37,30.5,34.8,30.5,34.6,30.8z M71.4,30.8c-0.1,0.2-0.2,2.1-0.1,8l0,7.8l2,0c1.3,0,2,0,2.2-0.1c0.2-0.1,0.2-0.7,0.2-2.4v-2.2
	l1.7-0.1c1.3-0.1,1.9-0.2,2.6-0.4c1.2-0.4,2.3-1.5,2.9-2.8c0.4-0.9,0.5-1.1,0.5-2.4c0-1.2-0.1-1.5-0.4-2.3c-0.5-1.2-1.8-2.4-3-2.8
	c-0.8-0.3-1.1-0.3-4.6-0.4C72.2,30.6,71.6,30.6,71.4,30.8z M63.3,34.4c0.7,0.4,1.6,1.3,1.8,2c0.2,0.4,0.2,1.6,0.2,5
	c0,4.9,0,5.2-1,6.2c-1.7,1.9-4.8,1.4-5.9-1c-0.3-0.6-0.3-1-0.4-4.7c-0.1-4.4,0-5.3,0.7-6.2C59.7,34.1,61.7,33.6,63.3,34.4z
	 M78.6,34.6c0.9,0.4,1.2,1.5,0.7,2.4c-0.3,0.6-1,0.9-2.5,0.9h-1.3v-1.8v-1.8h1.3C77.6,34.4,78.4,34.5,78.6,34.6z M26.4,35.3
	c2.8,1.4,2.7,5.6-0.3,6.6c-0.4,0.1-1.5,0.2-3.7,0.2c-3,0-3.2,0-3.9-0.3c-0.9-0.4-1.6-1.2-1.9-2.2c-0.3-0.9-0.3-1.2,0-2.1
	c0.2-0.5,0.4-1,0.9-1.4c1-1,1.4-1.1,5.2-1.1C25.4,35.1,25.9,35.1,26.4,35.3z M6.7,50.9c-0.1,0.1-0.1,3.6-0.1,7.8
	c0,5.8,0,7.8,0.2,7.9c0.2,0.2,3.4,0.3,3.8,0.1c0.2-0.1,0.2-0.5,0.2-2.7v-2.6l2.5,0l2.5,0v-1.8v-1.8l-2.5,0l-2.5,0l0-1.2l0-1.2
	l3.4-0.1l3.4-0.1V53v-2.1l-5.4,0C9.3,50.9,6.8,50.9,6.7,50.9z M19.5,51c-0.1,0.1-0.1,3.6-0.1,7.9c0,7,0,7.8,0.2,7.9
	c0.1,0,1,0.1,2,0.1c1.3,0,1.8-0.1,1.9-0.2c0.1-0.1,0.2-1.7,0.2-4.7c0-3.1,0.1-4.5,0.2-4.6c0.1,0,1.6,1.1,3.3,2.5
	c1.7,1.4,3.2,2.6,3.2,2.6c0.1,0,1.5-1.2,3.3-2.6c1.7-1.4,3.2-2.6,3.3-2.5c0.1,0,0.2,1.6,0.2,4.6c0,3,0.1,4.6,0.2,4.7
	c0.2,0.2,3.6,0.3,3.9,0.1c0.1-0.1,0.2-1.8,0.1-8l0-7.9l-1.4,0l-1.4,0l-4,3.3c-2.2,1.8-4.1,3.3-4.1,3.3c-0.1,0-1.9-1.5-4.1-3.3
	l-4-3.3H21C20.2,50.9,19.6,50.9,19.5,51z"/>
<path class="st2" d="M51.9,16.2c0.8,0.3,1.2,0.6,1.2,1c0,0.8-1.2,1.6-2.6,1.7c-1.7,0.2-3.8-1.1-3.3-2C47.6,16,50.2,15.7,51.9,16.2z
	 M50.2,18.7c-0.2-0.1-0.2-1.8-0.1-2.2c0.2-0.5,0.4,0.1,0.4,0.9C50.6,18.4,50.5,18.9,50.2,18.7z"/>
<path class="st3" d="M44.7,18.4c0.4,0.1,0.6,0.2,0.5,0.5c0,0.2-0.2,0.4-0.4,0.5c-0.3,0.2-0.3,0.2-0.2-0.1c0-0.2,0-0.3-0.1-0.4
	c-0.2-0.1-0.3,0-0.4,0.4c0,0.2-0.1,0.3-0.4,0.4c-0.4,0-0.4,0-0.3-0.3c0.1-0.4-0.3-0.5-0.5-0.2c-0.2,0.3-0.7,0.1-0.7-0.2
	c0-0.1,0.1-0.4,0.2-0.5C42.7,18.2,43.8,18.1,44.7,18.4z"/>
<path class="st3" d="M43.6,23.5l0.1,0.6h0.3v-1.8c0-1-0.1-1.8-0.1-1.8C43.6,20.4,43.4,22.8,43.6,23.5z"/>
<path class="st2" d="M39.2,15.7c0.4,0.1,0.9,0.3,1.1,0.5c0.3,0.3,0.4,0.4,0.2,0.8c-0.2,0.5-1.3,1.3-2.1,1.5c-1.4,0.4-3.3,0-4.2-0.8
	c-0.5-0.5-0.5-0.8-0.1-1.2C35.1,15.7,37.5,15.4,39.2,15.7z M37.8,18.1c-0.4,0.6-0.7-1-0.4-1.8c0.1-0.3,0.3-0.3,0.5,0
	C38,16.6,37.9,17.8,37.8,18.1z"/>
</svg>
